<svg id="Layer_1" data-name="Layer 1" xmlns="http://www.w3.org/2000/svg" viewBox="0 0 576 448"><defs><style>.cls-1{fill:#3b444b;}</style></defs><path class="cls-1" d="M64,0A64.06,64.06,0,0,0,0,64V384a64.06,64.06,0,0,0,64,64H512a64.06,64.06,0,0,0,64-64V64A64.06,64.06,0,0,0,512,0Zm80,256h64a80,80,0,0,1,80,80,16,16,0,0,1-16,16H80a16,16,0,0,1-16-16A80,80,0,0,1,144,256Zm-32-96a64,64,0,1,1,64,64A64,64,0,0,1,112,160Zm256-32H496a16,16,0,0,1,0,32H368a16,16,0,0,1,0-32Zm0,64H496a16,16,0,0,1,0,32H368a16,16,0,0,1,0-32Zm0,64H496a16,16,0,0,1,0,32H368a16,16,0,0,1,0-32Z"/></svg>