<svg id="Layer_1" data-name="Layer 1" xmlns="http://www.w3.org/2000/svg" viewBox="0 0 448 512"><defs><style>.cls-1{fill:#3b444b;}</style></defs><path class="cls-1" d="M384,192H368V144a144,144,0,0,0-288,0v48H64A64.06,64.06,0,0,0,0,256V448a64.06,64.06,0,0,0,64,64H384a64.06,64.06,0,0,0,64-64V256A64.06,64.06,0,0,0,384,192ZM144,144a80,80,0,0,1,160,0v48H144ZM304.49,318.39l-87.91,86.55c-14.5,14.24-12,15.07-26.67.49l-49.63-49.29a6.42,6.42,0,0,1,.61-10l25.81-26.71c3.77-4,7-3.77,11,0l26.37,24.6,62.33-63.34c5.53-5.65,9-10.13,15.86-3.13l22.23,22.61C311.76,307.43,311.38,311.5,304.49,318.39Z"/></svg>