<svg xmlns="http://www.w3.org/2000/svg" width="24" height="24"><defs><radialGradient id="a" cx="-104.119" cy="133.466" r="44.899" fx="-104.119" fy="133.466" gradientTransform="matrix(.66634 0 0 -.66634 78.298 112.948)" gradientUnits="userSpaceOnUse"><stop offset="0" style="stop-color:#fd5;stop-opacity:1"/><stop offset=".328" style="stop-color:#ff543f;stop-opacity:1"/><stop offset=".348" style="stop-color:#fc5245;stop-opacity:1"/><stop offset=".504" style="stop-color:#e64771;stop-opacity:1"/><stop offset=".643" style="stop-color:#d53e91;stop-opacity:1"/><stop offset=".761" style="stop-color:#cc39a4;stop-opacity:1"/><stop offset=".841" style="stop-color:#c837ab;stop-opacity:1"/></radialGradient><radialGradient id="b" cx="-111.713" cy="119.628" r="29.813" fx="-111.713" fy="119.628" gradientTransform="matrix(.66634 0 0 -.44395 78.298 52.811)" gradientUnits="userSpaceOnUse"><stop offset="0" style="stop-color:#4168c9;stop-opacity:1"/><stop offset=".999" style="stop-color:#4168c9;stop-opacity:0"/></radialGradient></defs><path d="M18.672 24H5.328C2.398 24 0 21.602 0 18.672V5.328C0 2.398 2.398 0 5.328 0h13.344C21.602 0 24 2.398 24 5.328v13.344C24 21.602 21.602 24 18.672 24m0 0" style="stroke:none;fill-rule:nonzero;fill:url(#a)"/><path d="M18.672 24H5.328C2.398 24 0 21.602 0 18.672V5.328C0 2.398 2.398 0 5.328 0h13.344C21.602 0 24 2.398 24 5.328v13.344C24 21.602 21.602 24 18.672 24m0 0" style="stroke:none;fill-rule:nonzero;fill:url(#b)"/><path d="M12 16.656A4.66 4.66 0 0 1 7.344 12c0-2.543 2.113-4.656 4.656-4.656S16.656 9.457 16.656 12A4.66 4.66 0 0 1 12 16.656m0-7.968A3.32 3.32 0 0 0 8.688 12 3.32 3.32 0 0 0 12 15.313 3.32 3.32 0 0 0 15.313 12 3.32 3.32 0 0 0 12 8.688M18 7.008a1.008 1.008 0 1 0-2.016 0 1.008 1.008 0 0 0 2.016 0m0 0" style="stroke:none;fill-rule:nonzero;fill:#fff;fill-opacity:1"/><path d="M15.984 20.64H8.016a4.633 4.633 0 0 1-4.657-4.656V8.016a4.633 4.633 0 0 1 4.657-4.657h8.015a4.66 4.66 0 0 1 4.657 4.657v8.015a4.694 4.694 0 0 1-4.704 4.61M8.016 4.657A3.32 3.32 0 0 0 4.703 7.97v8.015a3.32 3.32 0 0 0 3.313 3.313h8.015a3.32 3.32 0 0 0 3.313-3.313V8.016a3.32 3.32 0 0 0-3.313-3.313H8.016Zm0 0" style="stroke:none;fill-rule:nonzero;fill:#fff;fill-opacity:1"/></svg>