<svg xmlns="http://www.w3.org/2000/svg" width="24" height="24"><path d="M21.121 0H2.88A2.89 2.89 0 0 0 0 2.879V21.12A2.89 2.89 0 0 0 2.879 24H21.12A2.89 2.89 0 0 0 24 21.121V2.88A2.89 2.89 0 0 0 21.121 0m-2.258 10.465h-.383a4.35 4.35 0 0 1-3.601-1.922v6.578a4.885 4.885 0 0 1-4.895 4.895A4.853 4.853 0 0 1 5.09 15.12c0-2.738 2.156-4.898 4.894-4.898h.29v2.402c-.098 0-.196-.05-.29-.05a2.48 2.48 0 0 0-2.496 2.495 2.48 2.48 0 0 0 2.496 2.496c1.391 0 2.59-1.101 2.59-2.445V3.938h2.305c.191 2.062 1.875 3.648 3.937 3.84v2.687Zm0 0" style="stroke:none;fill-rule:nonzero;fill:#000;fill-opacity:1"/></svg>