<svg xmlns="http://www.w3.org/2000/svg" width="30" height="24"><path d="M29.34 19.379a3.76 3.76 0 0 1-3.121 3c-2.457.36-6.598.84-11.219.84-4.559 0-8.7-.418-11.219-.84-1.62-.18-2.883-1.379-3.18-3C.302 17.699 0 15.12 0 12s.3-5.7.602-7.379c.296-1.621 1.558-2.82 3.117-3 2.46-.36 6.601-.84 11.222-.84 4.618 0 8.7.418 11.22.84a3.76 3.76 0 0 1 3.12 3C29.641 6.301 30 8.88 30 12c-.059 3.121-.36 5.7-.66 7.379m0 0" style="stroke:none;fill-rule:nonzero;fill:#ff3d00;fill-opacity:1"/><path d="M12 17.219V6.78L21 12Zm0 0" style="stroke:none;fill-rule:nonzero;fill:#fff;fill-opacity:1"/></svg>