<svg id="Warstwa_2" data-name="Warstwa 2" xmlns="http://www.w3.org/2000/svg" xmlns:xlink="http://www.w3.org/1999/xlink" viewBox="0 0 256.26 800"><defs><style>.cls-1{fill:none;}.cls-2{fill:#3a3935;}.cls-3{fill:#c7e8e8;}.cls-4{fill:#85c2c4;}.cls-5{fill:#fff2bc;}.cls-6{fill:#fdcba1;}.cls-7{fill:#e5b88f;}.cls-8{fill:#c29173;}.cls-9{clip-path:url(#clip-path);}.cls-10{fill:#f2e3a5;}.cls-11{clip-path:url(#clip-path-2);}.cls-12{fill:url(#Nowa_próbka_wzorka_3);}</style><clipPath id="clip-path"><polygon class="cls-1" points="-17.06 133.01 98.5 211.28 175.9 96.99 60.34 18.73 -17.06 133.01"/></clipPath><clipPath id="clip-path-2"><polygon class="cls-1" points="113.25 66.41 167.9 8.77 110.89 -45.28 56.24 12.36 113.25 66.41"/></clipPath><pattern id="Nowa_próbka_wzorka_3" data-name="Nowa próbka wzorka 3" width="187.27" height="185.2" patternTransform="translate(7376.06 11196.05) scale(1.53 1.76)" patternUnits="userSpaceOnUse" viewBox="0 0 187.27 185.2"><rect class="cls-1" width="187.27" height="185.2"/><path class="cls-2" d="M152.4,210.19c1.7.77,3.15,2,4.83,2.79a21.24,21.24,0,0,0,5.62,1.51,5.18,5.18,0,0,0,2.64.19,6.16,6.16,0,0,0,2-1.54,23.64,23.64,0,0,1,3.47-3,.64.64,0,0,1,.36-.15c.43,0,1.31,1.56,1.57,1.9l1.65,2.1c.92,1.16,1.84,2.33,2.78,3.48a30.36,30.36,0,0,0,3.34,3.37.36.36,0,0,1,.05.6l-1.38,1.75a.43.43,0,0,0-.14.31.49.49,0,0,0,.14.24c.74.85,1.17,1.77,2,2.58a22.54,22.54,0,0,0,2.83,2.43,2.1,2.1,0,0,0,1.11.49,2.16,2.16,0,0,0,1.24-.49c.91-.61,4.51-2.59,3.29-4.07a2.28,2.28,0,0,0-.39-.37l-.41-.29a13.82,13.82,0,0,1-2.47-2.24,13.18,13.18,0,0,0-2.39-2.15.4.4,0,0,0-.21-.09.43.43,0,0,0-.23.1,7.64,7.64,0,0,1-1.46.79.31.31,0,0,1-.19,0,.33.33,0,0,1-.16-.11,42.74,42.74,0,0,1-3.26-3.47c-.45-.53-.88-1.07-1.31-1.62-.92-1.14-1.82-2.29-2.73-3.44-.62-.78-1.22-1.57-1.81-2.37a1.05,1.05,0,0,1-.24-.44,1.18,1.18,0,0,1,.4-.93q1.74-2,3.6-3.92a2.59,2.59,0,0,0,.7-2.65,4.94,4.94,0,0,0-.45-1,9,9,0,0,0-.62-1c-.22-.32-.44-.63-.67-.94-.42-.57-.87-1.13-1.31-1.68l-1.38-1.77c-.43-.54-.86-1.08-1.34-1.58s-1-1.06-1.56-1.58l-.62-.58-.68-.68c-.27-.27-.55-.55-.85-.81-.53-.47-1.06-.95-1.62-1.4-.3-.24-.62-.48-.94-.71-2.32-1.69-5-2.18-7.72-2.89a3.16,3.16,0,0,0-1-.14,2.64,2.64,0,0,0-1.17.53,22.81,22.81,0,0,0-7,8.48,19.09,19.09,0,0,0-2,4.92l-1.29,6a10.2,10.2,0,0,0-.41,2.8c.08.93,1,1.17,1.86,1.28A21.31,21.31,0,0,1,152.4,210.19Zm-2.19-6.26a7.53,7.53,0,0,0,1.38,1.2l.78.55,1,.71c.32.22.62.46.93.69.58.44,1.15.9,1.72,1.35l1.69,1.33c.26.21.52.41.77.63l.93.82c.51.45,1,.92,1.53,1.37l.39.32-.48,0c-.35-.05-.71-.13-1.06-.21a10.86,10.86,0,0,1-1.58-.53c-.27-.11-.53-.25-.79-.38l-1-.52c-.7-.4-1.4-.79-2.11-1.17l-.95-.54-1.15-.62a18.68,18.68,0,0,0-1.67-.85,6.55,6.55,0,0,0-1.63-.44c-.34,0-.69,0-1-.08l-1.17-.06c-.3,0-.6,0-.89-.06l1.36-1.08Zm-3.82.88q.13-.44.24-.87a9.57,9.57,0,0,0,.23-2l0-.74a7.21,7.21,0,0,1,.19-1.46c.12-.44.28-.86.43-1.28l.19-.42c.06-.12.11-.25.17-.37.27-.63.54-1.26.83-1.88s.55-1.15.82-1.72l.42-.9c.12-.26.25-.5.38-.75.36-.63.7-1.27,1.11-1.87a8.73,8.73,0,0,1,.68-.92c.22-.25.44-.49.67-.73a14.46,14.46,0,0,1,1.25-1.1l.65-.51.18-.15a8.33,8.33,0,0,1,.67-.5,1.79,1.79,0,0,1,1.14-.32,7.3,7.3,0,0,1,1.68.29,5.54,5.54,0,0,0,.55.14l-.16.11-.48.33c-.31.22-.62.44-.92.67a5.53,5.53,0,0,0-1,.91,7.67,7.67,0,0,0-.53.74l-.32.46c-.11.17-.21.35-.3.52-.21.35-.4.7-.59,1.06s-.35.65-.53,1l-.51,1c-.28.56-.52,1.15-.78,1.73-.12.29-.27.57-.39.86s-.26.53-.39.8a.65.65,0,0,0-.42.14.68.68,0,0,0-.15.89c-.11.19-.21.38-.31.58-.28.52-.55,1.05-.83,1.58-.17.28-.33.57-.49.86s-.17.31-.25.47a1.58,1.58,0,0,0-.14.77,2.1,2.1,0,0,0,.1.51l0,0a.7.7,0,0,0-.14-.32.68.68,0,0,0-1.06.84.71.71,0,0,0,.28.21l-1.8,1.41-.63.5A5.71,5.71,0,0,0,146.39,204.81Zm4.5-2.5a1.8,1.8,0,0,1,.31-1.13l4.69-9a22.27,22.27,0,0,1,1.27-2.22,10.33,10.33,0,0,1,3.42-3.09c.27-.15,2,1,2.26,1.18a25.24,25.24,0,0,1,2.21,1.5c1.35,1,2.59,2.22,3.83,3.39.49.49,1,1,1.47,1.48s.91,1,1.34,1.59c.9,1.15,1.8,2.29,2.69,3.45.36.47.69,1,1,1.45s.78,1.26.26,1.85L172,206.92c-.24.27-.47.54-.73.78-.69.66-1.37,1.23-2,1.92L168,210.91a16,16,0,0,1-3.07,2.62.62.62,0,0,1-.8,0,6.51,6.51,0,0,1-1-.77c-1-.83-2-1.49-2.88-2.39-1.14-1.13-2.43-2.16-3.66-3.17-1.69-1.38-3.56-2.52-5.15-4a1.64,1.64,0,0,1-.57-.81S150.89,202.32,150.89,202.31Zm31.54,19.36a3.23,3.23,0,0,1,1.22-.78.77.77,0,0,1,.45,0,.84.84,0,0,1,.31.25c1.09,1.16,1.85,2.63,3.11,3.61a6.2,6.2,0,0,1,.85.62,5.8,5.8,0,0,1-1,1.16,10.85,10.85,0,0,1-1.62,1.17,1.29,1.29,0,0,1-.72.26,1.38,1.38,0,0,1-.71-.31,14.48,14.48,0,0,1-4-4.18C181,222.86,181.73,222.26,182.43,221.67Z"/><path class="cls-2" d="M-34.87,210.19c1.7.77,3.15,2,4.84,2.79a21.06,21.06,0,0,0,5.61,1.51,5.18,5.18,0,0,0,2.64.19,6.2,6.2,0,0,0,2-1.54,22.65,22.65,0,0,1,3.47-3A.58.58,0,0,1-16,210c.43,0,1.3,1.56,1.56,1.9l1.65,2.1c.92,1.16,1.84,2.33,2.78,3.48a31.26,31.26,0,0,0,3.34,3.37.47.47,0,0,1,.19.29.47.47,0,0,1-.14.31L-8,223.18a.47.47,0,0,0-.14.31.49.49,0,0,0,.14.24c.74.85,1.18,1.77,2,2.58a22.45,22.45,0,0,0,2.82,2.43,2.13,2.13,0,0,0,1.12.49,2.14,2.14,0,0,0,1.23-.49c.91-.61,4.51-2.59,3.29-4.07a2,2,0,0,0-.39-.37l-.4-.29a13.49,13.49,0,0,1-2.47-2.24,13.88,13.88,0,0,0-2.39-2.15.48.48,0,0,0-.21-.09.43.43,0,0,0-.24.1,7.28,7.28,0,0,1-1.45.79.34.34,0,0,1-.19,0,.32.32,0,0,1-.17-.11,42.74,42.74,0,0,1-3.26-3.47c-.45-.53-.88-1.07-1.31-1.62l-2.73-3.44c-.61-.78-1.22-1.57-1.81-2.37a1.05,1.05,0,0,1-.24-.44,1.18,1.18,0,0,1,.4-.93q1.74-2,3.6-3.92a2.59,2.59,0,0,0,.7-2.65,4.42,4.42,0,0,0-.45-1,10.76,10.76,0,0,0-.61-1l-.68-.94c-.42-.57-.87-1.13-1.3-1.68l-1.39-1.77c-.43-.54-.85-1.08-1.33-1.58s-1-1.06-1.57-1.58l-.61-.58c-.23-.23-.46-.45-.68-.68s-.56-.55-.85-.81c-.54-.47-1.07-.95-1.62-1.4-.31-.24-.62-.48-.94-.71-2.33-1.69-5-2.18-7.73-2.89a3.16,3.16,0,0,0-1-.14,2.64,2.64,0,0,0-1.17.53,22.9,22.9,0,0,0-7,8.48,19.09,19.09,0,0,0-2,4.92l-1.29,6a10.59,10.59,0,0,0-.41,2.8c.08.93,1,1.17,1.86,1.28A21.31,21.31,0,0,1-34.87,210.19ZM-37,203.93a7.15,7.15,0,0,0,1.37,1.2l.79.55,1,.71c.32.22.63.46.93.69.59.44,1.15.9,1.73,1.35l1.68,1.33c.26.21.52.41.77.63l.93.82c.51.45,1,.92,1.53,1.37l.39.32-.47,0c-.36-.05-.72-.13-1.06-.21a11.4,11.4,0,0,1-1.59-.53c-.27-.11-.53-.25-.79-.38l-1-.52c-.7-.4-1.4-.79-2.11-1.17l-.94-.54-1.15-.62c-.55-.3-1.1-.6-1.68-.85a6.6,6.6,0,0,0-1.62-.44c-.35,0-.69,0-1-.08l-1.17-.06c-.3,0-.6,0-.89-.06l1.36-1.08Zm-3.83.88c.1-.29.17-.58.24-.87a10.31,10.31,0,0,0,.24-2c0-.25,0-.5,0-.74a7.21,7.21,0,0,1,.19-1.46c.13-.44.28-.86.44-1.28,0-.14.12-.28.18-.42l.17-.37c.28-.63.54-1.26.83-1.88s.55-1.15.83-1.72c.13-.3.27-.6.41-.9s.25-.5.39-.75c.35-.63.69-1.27,1.1-1.87.22-.32.44-.63.68-.92s.44-.49.67-.73a14.46,14.46,0,0,1,1.25-1.1l.65-.51.18-.15c.22-.17.44-.35.67-.5a1.8,1.8,0,0,1,1.14-.32,7.48,7.48,0,0,1,1.69.29,5.36,5.36,0,0,0,.54.14l-.15.11-.49.33c-.31.22-.62.44-.92.67a5.53,5.53,0,0,0-1,.91c-.19.23-.36.49-.53.74l-.32.46c-.11.17-.2.35-.3.52-.21.35-.4.7-.59,1.06l-.52,1c-.18.33-.35.66-.51,1-.29.56-.52,1.15-.78,1.73-.13.29-.27.57-.4.86s-.26.53-.39.8a.65.65,0,0,0-.42.14.68.68,0,0,0-.15.89c-.1.19-.21.38-.31.58-.28.52-.55,1.05-.83,1.58l-.49.86c-.09.15-.17.31-.25.47a1.58,1.58,0,0,0-.14.77,2.1,2.1,0,0,0,.1.51l0,0a.8.8,0,0,0-.13-.32.68.68,0,0,0-1-.11.69.69,0,0,0-.12,1,.79.79,0,0,0,.28.21l-1.8,1.41-.63.5A4,4,0,0,0-40.88,204.81Zm4.5-2.5a1.94,1.94,0,0,1,.31-1.13l4.69-9A20.55,20.55,0,0,1-30.1,190a10.14,10.14,0,0,1,3.42-3.09c.26-.15,2,1,2.25,1.18a25.24,25.24,0,0,1,2.21,1.5A49.33,49.33,0,0,1-18.39,193c.5.49,1,1,1.47,1.48s.91,1,1.34,1.59c.9,1.15,1.81,2.29,2.69,3.45.36.47.69,1,1,1.45s.78,1.26.25,1.85l-3.63,4.15a9,9,0,0,1-.73.78c-.69.66-1.36,1.23-2,1.92l-1.25,1.29a16,16,0,0,1-3.07,2.62.69.69,0,0,1-.33.14.73.73,0,0,1-.47-.15,7,7,0,0,1-1-.77c-1-.83-2-1.49-2.88-2.39-1.13-1.13-2.43-2.16-3.66-3.17-1.69-1.38-3.56-2.52-5.15-4a1.64,1.64,0,0,1-.57-.81S-36.37,202.32-36.38,202.31Zm31.54,19.36a3.31,3.31,0,0,1,1.22-.78.77.77,0,0,1,.45,0,1,1,0,0,1,.32.25c1.08,1.16,1.84,2.63,3.11,3.61a6.09,6.09,0,0,1,.84.62,5.5,5.5,0,0,1-1,1.16,10.28,10.28,0,0,1-1.61,1.17,1.35,1.35,0,0,1-.73.26,1.38,1.38,0,0,1-.71-.31,14.48,14.48,0,0,1-4-4.18Z"/><rect class="cls-3" width="187.27" height="185.2"/><path class="cls-4" d="M135.32,128.91a1.19,1.19,0,0,0-1.5.75c-.2.57-.39,1.14-.6,1.7s-.45,1.12-.65,1.69c-.41,1.16-.79,2.33-1.18,3.5-.2.57-.39,1.14-.6,1.71s-.47,1.2-.69,1.8c-.41,1.16-.76,2.33-1.2,3.47-.1.26-.21.51-.33.76a9.65,9.65,0,0,1-.77,1.28l-.13.11-.17.09a4.34,4.34,0,0,1-.52.09,5.78,5.78,0,0,1-.83-.05,16.09,16.09,0,0,1-1.67-.51c-.31-.12-.62-.25-.94-.35a2.3,2.3,0,0,0-1.22-.07,1.74,1.74,0,0,0-1.08.83,8,8,0,0,0-.4,1.06l-.28.85-.54,1.59c-.78,2.33-1.55,4.66-2.34,7-.22.63-.44,1.27-.67,1.9s-.43,1.06-.65,1.59c-.48,1.21-1,2.41-1.47,3.61-.23.56-.45,1.13-.67,1.69s-.46,1.13-.69,1.7-.44,1.14-.66,1.72-.47,1.22-.69,1.83c-.43,1.23-.83,2.46-1.24,3.69l-.6,1.75c-.22.64-.44,1.27-.72,1.89a5.62,5.62,0,0,1-.54.83l-.07.06h0a2.7,2.7,0,0,1-.39.08,4.3,4.3,0,0,1-.62,0,10.91,10.91,0,0,1-1.86-.6.75.75,0,0,0,0-.16c.11-.31.21-.62.31-.92.18-.53.36-1,.53-1.57a34.63,34.63,0,0,1,1.4-3.67c.53-1.15,1.08-2.3,1.63-3.45s1-2.15,1.5-3.25,1.06-2.39,1.62-3.57c.29-.59.55-1.18.8-1.78s.49-1.11.73-1.66.52-1.16.79-1.73a18.17,18.17,0,0,0,.67-1.73c.41-1.21.81-2.43,1.22-3.64s.78-2.31,1.16-3.47a11.59,11.59,0,0,0,.61-2.47,2.92,2.92,0,0,0-.68-2.06,3.39,3.39,0,0,0-1.31-.87,7.24,7.24,0,0,1-1.1-.73c-.35-.28-.7-.55-1-.84a4,4,0,0,1-.44-.48,2.29,2.29,0,0,1-.14-.27,3.4,3.4,0,0,1-.07-.34,5.12,5.12,0,0,1,.08-.87c.13-.52.31-1,.48-1.52s.35-1,.53-1.57.37-1,.57-1.53.41-1.07.6-1.62c.35-1,.77-2,1.16-3,.2-.52.41-1,.58-1.57s.33-1.09.45-1.66a1.27,1.27,0,0,0-.06-.9,1.21,1.21,0,0,0-.68-.6,1.2,1.2,0,0,0-.91.06,1.14,1.14,0,0,0-.6.69c-.13.61-.31,1.22-.5,1.82s-.43,1.13-.65,1.69-.47,1.13-.68,1.7-.42,1.19-.63,1.78-.46,1.16-.67,1.74-.4,1.14-.59,1.7c-.59,1.74-1.41,3.75-.32,5.46a4.39,4.39,0,0,0,.81,1c.22.2.44.38.67.56l.72.58a8.34,8.34,0,0,0,1.72,1l.17.11,0,.06.09.17s0,.06,0,.1a1.82,1.82,0,0,1,0,.32c-.14.62-.34,1.22-.53,1.82s-.38,1.14-.58,1.72c-.39,1.18-.79,2.37-1.19,3.55a30.8,30.8,0,0,1-1.27,3.48q-.81,1.69-1.53,3.42c-.52,1.24-1.12,2.45-1.68,3.67s-.95,2.22-1.47,3.3-1.1,2.29-1.64,3.45l-.84,1.79a17.46,17.46,0,0,0-.67,1.69c-.42,1.17-.81,2.34-1.2,3.52-.09.26-.18.52-.26.78l-.14.39-.1.25a1.76,1.76,0,0,0-.06.88c0,.1.07.19.1.29l.26.39a2.16,2.16,0,0,0,.43.36,5,5,0,0,0,.9.44l.91.34c.26.09.52.17.79.24s.5.12.76.16a4.46,4.46,0,0,0,1.21,0,3.32,3.32,0,0,0,1-.23,3,3,0,0,0,.54-.32,3.82,3.82,0,0,0,.45-.45,6.57,6.57,0,0,0,1.11-1.94c.47-1.15.85-2.33,1.24-3.5s.78-2.37,1.2-3.54c.22-.62.46-1.23.69-1.84s.41-1.1.63-1.65l.73-1.77c.21-.55.42-1.1.65-1.65l1.48-3.63c.2-.51.43-1,.61-1.51s.45-1.27.67-1.91c.39-1.13.77-2.27,1.15-3.41s.78-2.32,1.16-3.47c.31-.91.6-1.82.91-2.73l.48.19.85.3a6.18,6.18,0,0,0,3.68.23,3.68,3.68,0,0,0,1.07-.57,2.22,2.22,0,0,0,.4-.41,4.12,4.12,0,0,0,.32-.41c.2-.3.36-.62.53-.94a13.34,13.34,0,0,0,.86-1.93c.21-.58.4-1.17.6-1.75s.37-1.15.59-1.71c.47-1.18.89-2.37,1.3-3.57.35-1,.69-2.1,1-3.14.19-.54.42-1.06.63-1.6s.38-1.07.56-1.61A1.2,1.2,0,0,0,135.32,128.91Z"/><path class="cls-4" d="M119.34,126.35c-.41,1.76-.91,3.48-1.38,5.21-.24.86-.52,1.7-.78,2.54s-.49,1.75-.77,2.62a1.19,1.19,0,0,0,2.25.75c.29-.9.52-1.81.8-2.71s.6-1.9.86-2.85.51-1.82.76-2.74a28,28,0,0,0,.71-3.17,1.17,1.17,0,0,0-.29-.84,1.23,1.23,0,0,0-.52-.35,1.7,1.7,0,0,0-.31-.06,1.18,1.18,0,0,0-1.25,1.12C119.39,126,119.37,126.19,119.34,126.35Z"/><path class="cls-4" d="M120.42,135.85c-.12.44-.24.89-.37,1.34s-.35,1.1-.47,1.66a1.18,1.18,0,0,0,0,.62,1.19,1.19,0,0,0,1.09.94,1.14,1.14,0,0,0,.85-.29l.26-.28a3,3,0,0,0,.23-.52,1.18,1.18,0,0,0,.06-.49c.07-.26.16-.52.23-.78.14-.48.27-1,.41-1.44.3-1.07.61-2.13.92-3.19.61-2,1.26-4,2.06-6a1.19,1.19,0,0,0-2.25-.76,61.73,61.73,0,0,0-2.06,6C121,133.72,120.73,134.79,120.42,135.85Z"/><path class="cls-4" d="M122.81,140.88a1.19,1.19,0,1,0,2.25.75c.17-.55.32-1.1.48-1.65s.34-1.09.52-1.63c.37-1.1.73-2.19,1.1-3.28l2.19-6.54a1.19,1.19,0,0,0-2.25-.75l-2.19,6.53c-.36,1.06-.72,2.13-1.07,3.19-.18.54-.37,1.07-.53,1.62S123,140.29,122.81,140.88Z"/><path class="cls-4" d="M128.38,135.09l-2.1,6.25a1.21,1.21,0,0,0,.75,1.5,1.19,1.19,0,0,0,1.5-.75l2.1-6.24c.68-2,1.41-4,1.94-6.12a1.3,1.3,0,0,0-.06-.91,1.2,1.2,0,0,0-.69-.6,1.19,1.19,0,0,0-1.5.75C129.78,131,129.06,133.06,128.38,135.09Z"/><path class="cls-4" d="M8.86,47.18a1.19,1.19,0,0,0,1.37,1c.59-.1,1.18-.2,1.78-.27s1.2-.13,1.8-.22c1.21-.19,2.42-.41,3.64-.61.59-.1,1.19-.2,1.79-.28s1.28-.15,1.92-.25c1.21-.18,2.4-.42,3.62-.57.27,0,.55-.05.82-.06a8.33,8.33,0,0,1,1.5.07l.16.06.15.11a4.23,4.23,0,0,1,.33.41,5.7,5.7,0,0,1,.34.76A14.14,14.14,0,0,1,28.42,49c0,.33.08.66.14,1a2.31,2.31,0,0,0,.51,1.11,1.69,1.69,0,0,0,1.24.56,7,7,0,0,0,1.12-.15l.89-.15L34,51.11c2.42-.41,4.84-.83,7.26-1.22l2-.31c.56-.08,1.13-.12,1.7-.18l3.88-.4,1.81-.21,1.82-.19c.61-.06,1.22-.14,1.82-.23l2-.25c1.28-.19,2.56-.43,3.84-.64.61-.11,1.21-.21,1.82-.3a19.7,19.7,0,0,1,2-.25,5.33,5.33,0,0,1,1,.08L65,47h0a3.76,3.76,0,0,1,.25.31,4.17,4.17,0,0,1,.26.57,10.46,10.46,0,0,1,.35,1.92l-.17,0-1,.16-1.63.27a33.91,33.91,0,0,1-3.89.5L55.36,51c-1.19,0-2.38.1-3.57.21s-2.61.19-3.91.24c-.66,0-1.3.08-2,.15l-1.81.13c-.63.05-1.26.09-1.9.12a16.48,16.48,0,0,0-1.84.22l-3.79.64-3.6.61a12.15,12.15,0,0,0-2.46.62A2.94,2.94,0,0,0,29,55.52a3.43,3.43,0,0,0-.15,1.56,8.43,8.43,0,0,1-.13,1.32c-.08.43-.16.87-.25,1.31a3.48,3.48,0,0,1-.21.62l-.17.24-.28.22a5.23,5.23,0,0,1-.8.35c-.52.12-1,.2-1.57.29l-1.64.27c-.53.08-1.07.16-1.61.22s-1.14.14-1.71.23c-1.06.17-2.13.27-3.2.39-.55.07-1.1.13-1.65.23a16.91,16.91,0,0,0-1.68.38,1.29,1.29,0,0,0-.77.48,1.22,1.22,0,0,0-.2.89,1.2,1.2,0,0,0,.48.77,1.09,1.09,0,0,0,.89.2c.6-.17,1.22-.29,1.84-.41s1.2-.16,1.8-.23,1.22-.12,1.82-.2,1.25-.19,1.87-.28,1.23-.14,1.85-.23,1.19-.18,1.78-.28c1.8-.29,4-.52,5-2.29a4.41,4.41,0,0,0,.47-1.17c.07-.28.12-.57.18-.85s.11-.61.17-.91a9,9,0,0,0,.1-2,1.34,1.34,0,0,1,0-.2s0,0,0-.08l.12-.15.07-.07.3-.13c.61-.16,1.23-.27,1.86-.38l1.78-.3,3.7-.63a32.39,32.39,0,0,1,3.67-.51c1.24-.06,2.5-.15,3.74-.27s2.68-.16,4-.24,2.41-.21,3.61-.26l3.81-.18,2-.1c.6,0,1.21-.11,1.81-.2l3.67-.6.8-.14c.14,0,.27-.05.41-.06l.28,0a1.71,1.71,0,0,0,.8-.36l.2-.22c.08-.14.16-.28.23-.42a2.35,2.35,0,0,0,.11-.54,4.28,4.28,0,0,0,0-1c0-.32-.07-.64-.12-.95a6.83,6.83,0,0,0-.16-.81c-.07-.26-.14-.51-.22-.75A4.4,4.4,0,0,0,67.13,46a3.48,3.48,0,0,0-.67-.76,2.69,2.69,0,0,0-.54-.33,3.94,3.94,0,0,0-.61-.19,6.74,6.74,0,0,0-2.24-.06c-1.23.13-2.45.35-3.67.55s-2.45.44-3.68.62L53.77,46c-.58.08-1.16.16-1.75.22s-1.27.12-1.9.2l-1.77.2-3.9.4c-.54.06-1.08.1-1.62.18s-1.33.19-2,.3l-3.56.6-3.61.61c-.94.15-1.88.33-2.83.48l-.06-.51c0-.3-.08-.6-.14-.89a6.12,6.12,0,0,0-1.53-3.36,3.58,3.58,0,0,0-1-.67,2.66,2.66,0,0,0-.55-.16l-.51-.09c-.36,0-.72,0-1.08,0a14.87,14.87,0,0,0-2.11.16L22,44c-.59.1-1.19.22-1.78.29-1.26.14-2.51.33-3.76.53-1.09.19-2.18.38-3.27.55-.57.09-1.14.13-1.71.21s-1.12.16-1.68.26A1.19,1.19,0,0,0,8.86,47.18Z"/><path class="cls-4" d="M14.13,62.48c1.74-.47,3.5-.84,5.25-1.24.86-.2,1.74-.34,2.61-.51s1.77-.39,2.66-.55a1.19,1.19,0,0,0-.39-2.35c-.93.17-1.85.4-2.77.58s-2,.36-2.92.58l-2.77.62a28.47,28.47,0,0,0-3.13.87,1.13,1.13,0,0,0-.61.66,1.29,1.29,0,0,0-.06.62,1.71,1.71,0,0,0,.09.3,1.2,1.2,0,0,0,.66.61,1.22,1.22,0,0,0,.92,0Z"/><path class="cls-4" d="M22,57.05l1.35-.3c.57-.12,1.14-.21,1.69-.37a1.26,1.26,0,0,0,.56-.26,1.19,1.19,0,0,0,.42-.8,1.12,1.12,0,0,0-.1-.62,1.17,1.17,0,0,0-.66-.61L24.89,54a2.15,2.15,0,0,0-.56,0,1,1,0,0,0-.46.18l-.81.16-1.46.32c-1.08.23-2.16.47-3.25.69a62.76,62.76,0,0,1-6.26,1,1.19,1.19,0,0,0-.5,2.14,1.23,1.23,0,0,0,.89.21,63.46,63.46,0,0,0,6.27-1Z"/><path class="cls-4" d="M25.31,52.57a1.2,1.2,0,0,0,1-1.37,1.19,1.19,0,0,0-1.37-1l-1.68.36c-.56.12-1.12.21-1.68.31l-3.42.57-6.79,1.15A1.19,1.19,0,1,0,11.73,55l6.8-1.14,3.32-.56c.56-.1,1.12-.18,1.67-.3S24.71,52.69,25.31,52.57Z"/><path class="cls-4" d="M17.58,50.39l6.5-1.1a1.19,1.19,0,0,0,1-1.36,1.2,1.2,0,0,0-1.37-1L17.19,48c-2.11.36-4.24.67-6.31,1.18a1.24,1.24,0,0,0-.78.48,1.22,1.22,0,0,0-.2.89,1.19,1.19,0,0,0,1.37,1C13.35,51.05,15.47,50.74,17.58,50.39Z"/><path class="cls-2" d="M173.28,148.42c-1.11-2.14-1.6-4.55-2.67-6.71a27.65,27.65,0,0,0-4.5-6c-.72-.8-1.43-2-2.52-2.31a7.86,7.86,0,0,0-3.24,0,31,31,0,0,1-5.94.27.8.8,0,0,1-.48-.14c-.42-.36-.08-2.62-.07-3.18,0-1.15,0-2.3,0-3.45,0-1.92,0-3.84,0-5.77a39,39,0,0,0-.69-6.09.68.68,0,0,1,0-.45.62.62,0,0,1,.39-.2l2.81-.67a.59.59,0,0,0,.38-.2.64.64,0,0,0,.06-.36c-.08-1.45.22-2.74.06-4.21a29.4,29.4,0,0,0-.93-4.72,2.68,2.68,0,0,0-.73-1.39,2.86,2.86,0,0,0-1.65-.49c-1.41-.12-6.65-1-6.6,1.49a2.6,2.6,0,0,0,.1.68c0,.21.12.42.18.62a17.66,17.66,0,0,1,.71,4.26,17.52,17.52,0,0,0,.71,4.09.46.46,0,0,0,.13.27.53.53,0,0,0,.33.08,10.13,10.13,0,0,1,2.11.36.48.48,0,0,1,.22.12.46.46,0,0,1,.08.24,57.62,57.62,0,0,1,.53,6.13c0,.9,0,1.81,0,2.7,0,1.89,0,3.78,0,5.68,0,1.28,0,2.57-.06,3.85a1.42,1.42,0,0,1-.11.65,1.56,1.56,0,0,1-1.15.62c-2.26.43-4.52.79-6.8,1.09a3.33,3.33,0,0,0-2.83,2.13,6.09,6.09,0,0,0-.32,1.34,14.75,14.75,0,0,0-.16,1.49c0,.49-.05,1-.06,1.49,0,.91,0,1.84,0,2.76s0,1.93,0,2.9,0,1.78.08,2.68.21,1.9.33,2.85c.05.36.1.72.16,1.09l.15,1.22c.05.51.12,1,.21,1.51.16.91.31,1.82.52,2.72.12.49.24,1,.38,1.47,1,3.59,3.34,6.23,5.53,9.13a3.92,3.92,0,0,0,.91.95,3.43,3.43,0,0,0,1.61.4c4.81.34,9.52-1.1,13.88-3a24.61,24.61,0,0,0,6-3.38l6.12-5.07a13,13,0,0,0,2.66-2.51c.67-1-.08-2-.85-2.79A27.31,27.31,0,0,1,173.28,148.42Zm-2.8,8.11a9.24,9.24,0,0,0-.44-2.32c-.11-.4-.23-.79-.35-1.19l-.45-1.52c-.14-.48-.26-1-.39-1.44-.24-.92-.44-1.84-.66-2.76s-.44-1.79-.65-2.69c-.09-.42-.19-.84-.27-1.26s-.2-1-.29-1.57c-.16-.88-.29-1.76-.46-2.62,0-.22-.09-.43-.13-.64.15.14.3.27.44.42a11.33,11.33,0,0,1,.91,1.06,13.93,13.93,0,0,1,1.18,1.8c.19.34.34.68.5,1s.4.88.59,1.32c.39,1,.78,1.93,1.2,2.88l.54,1.3c.2.52.43,1,.67,1.55a22,22,0,0,0,1,2.21,8.23,8.23,0,0,0,1.3,1.74c.31.33.65.62,1,.92s.75.67,1.13,1,.58.51.86.78h-7.23Zm4.58,2.17c-.33.22-.63.46-.94.7a12.18,12.18,0,0,0-1.83,1.83l-.62.73a9,9,0,0,1-1.37,1.32c-.47.35-1,.65-1.46,1-.17.1-.35.18-.53.27l-.46.25c-.79.41-1.56.84-2.35,1.24s-1.48.72-2.22,1.08l-1.14.58c-.33.17-.66.31-1,.46-.86.35-1.72.73-2.61,1a12.59,12.59,0,0,1-1.43.38c-.42.08-.85.15-1.27.21-.72.08-1.43.11-2.14.12h-1.38c-.36,0-.72,0-1.07,0a2.35,2.35,0,0,1-1.43-.59,10.39,10.39,0,0,1-1.47-1.64,6.46,6.46,0,0,0-.44-.59l.24,0,.76.05q.73,0,1.47.06a7.51,7.51,0,0,0,1.71-.15,11.22,11.22,0,0,0,1.13-.33l.69-.21c.25-.08.48-.19.72-.28.49-.19,1-.4,1.45-.61l1.32-.57,1.32-.61c.73-.35,1.45-.76,2.17-1.13l1.09-.55c.34-.18.69-.34,1.05-.5a.9.9,0,0,0,.53.19.89.89,0,0,0,.87-.78l.78-.34,2.11-.94,1.18-.48.63-.28a2.07,2.07,0,0,0,.77-.67,3.36,3.36,0,0,0,.3-.6h0a.8.8,0,0,0-.12.43.88.88,0,0,0,1.75,0,.89.89,0,0,0-.12-.43h4A7.92,7.92,0,0,0,175.06,158.7Zm-6.57-1.07a2.36,2.36,0,0,1-1.21.9l-12,5.37a26.15,26.15,0,0,1-3.07,1.22,13.22,13.22,0,0,1-6,.41c-.39-.06-1.18-2.61-1.33-3a31.63,31.63,0,0,1-1-3.3,65.07,65.07,0,0,1-1.17-6.5c-.11-.9-.22-1.79-.31-2.69s-.08-1.79-.08-2.68c0-1.89,0-3.78,0-5.66,0-.77.07-1.53.14-2.29s.21-1.9,1.22-2.09l7-1.29c.46-.08.92-.17,1.38-.21,1.22-.11,2.37-.15,3.6-.32l2.29-.31a20.39,20.39,0,0,1,5.23-.2,1.06,1.06,0,0,1,.45.13,1,1,0,0,1,.35.52,10.44,10.44,0,0,1,.38,1.56c.32,1.64.81,3.11,1,4.75.24,2.06.73,4.13,1.17,6.15.61,2.76,1.59,5.41,2,8.21a2.25,2.25,0,0,1-.08,1.29S168.5,157.62,168.49,157.63ZM152,112.71a4.51,4.51,0,0,1-1.87-.19,1,1,0,0,1-.46-.36,1.08,1.08,0,0,1-.12-.5c-.18-2,.24-4.15-.27-6.15a8.38,8.38,0,0,1-.36-1.32,7.39,7.39,0,0,1,2-.36,13.73,13.73,0,0,1,2.58.1,1.37,1.37,0,0,1,1.41,1.21,18.57,18.57,0,0,1,.67,7.41Z"/><path class="cls-5" d="M176.85,155.75c-.38-.33-.76-.66-1.13-1s-.68-.59-1-.92a8.23,8.23,0,0,1-1.3-1.74,22,22,0,0,1-1-2.21c-.24-.52-.47-1-.67-1.55l-.54-1.3c-.42-.95-.81-1.91-1.2-2.88-.19-.44-.38-.88-.59-1.32s-.31-.69-.5-1a13.93,13.93,0,0,0-1.18-1.8,11.33,11.33,0,0,0-.91-1.06c-.14-.15-.29-.28-.44-.42,0,.21.09.42.13.64.17.86.3,1.74.46,2.62.09.52.19,1,.29,1.57s.18.84.27,1.26c.21.9.44,1.79.65,2.69s.42,1.84.66,2.76c.13.48.25,1,.39,1.44l.45,1.52c.12.4.24.79.35,1.19a9.24,9.24,0,0,1,.44,2.32h7.23C177.43,156.26,177.14,156,176.85,155.75Zm-4-1.74a.88.88,0,1,1,.88-.88A.88.88,0,0,1,172.84,154Z"/><path class="cls-5" d="M171.74,158.28a.86.86,0,0,1-.76,1.3.88.88,0,0,1-.87-.87.8.8,0,0,1,.12-.43h0a3.36,3.36,0,0,1-.3.6,2.07,2.07,0,0,1-.77.67l-.63.28-1.18.48-2.11.94-.78.34a.89.89,0,0,1-.87.78.9.9,0,0,1-.53-.19c-.36.16-.71.32-1.05.5l-1.09.55c-.72.37-1.44.78-2.17,1.13l-1.32.61-1.32.57c-.48.21-1,.42-1.45.61-.24.09-.47.2-.72.28l-.69.21a11.22,11.22,0,0,1-1.13.33,7.51,7.51,0,0,1-1.71.15q-.74,0-1.47-.06l-.76-.05-.24,0a6.46,6.46,0,0,1,.44.59,10.39,10.39,0,0,0,1.47,1.64,2.35,2.35,0,0,0,1.43.59c.35,0,.71,0,1.07,0h1.38c.71,0,1.42,0,2.14-.12.42-.06.85-.13,1.27-.21a12.59,12.59,0,0,0,1.43-.38c.89-.28,1.75-.66,2.61-1,.34-.15.67-.29,1-.46l1.14-.58c.74-.36,1.49-.71,2.22-1.08s1.56-.83,2.35-1.24l.46-.25c.18-.09.36-.17.53-.27.5-.31,1-.61,1.46-1a9,9,0,0,0,1.37-1.32l.62-.73a12.18,12.18,0,0,1,1.83-1.83c.31-.24.61-.48.94-.7a7.92,7.92,0,0,1,.69-.42h-4Zm-4.47,4.55a.88.88,0,1,1,.87-.87A.89.89,0,0,1,167.27,162.83Zm-7,3.72a.88.88,0,1,1,.88-.88A.89.89,0,0,1,160.3,166.55ZM151,169.33a.88.88,0,0,1,0-1.75.88.88,0,1,1,0,1.75Z"/><path class="cls-5" d="M172.84,152.26a.88.88,0,1,1-.87.87A.89.89,0,0,1,172.84,152.26Z"/><path class="cls-5" d="M166.59,148.09c-.44-2-.93-4.09-1.17-6.15-.2-1.64-.69-3.11-1-4.75a10.44,10.44,0,0,0-.38-1.56,1,1,0,0,0-.35-.52,1.06,1.06,0,0,0-.45-.13,20.39,20.39,0,0,0-5.23.2l-2.29.31c-1.23.17-2.38.21-3.6.32-.46,0-.92.13-1.38.21l-7,1.29c-1,.19-1.15,1.21-1.22,2.09s-.12,1.52-.14,2.29c0,1.88,0,3.77,0,5.66,0,.89,0,1.78.08,2.68s.2,1.79.31,2.69a65.07,65.07,0,0,0,1.17,6.5,31.63,31.63,0,0,0,1,3.3c.15.4.94,2.95,1.33,3a13.22,13.22,0,0,0,6-.41,26.15,26.15,0,0,0,3.07-1.22l12-5.37a2.36,2.36,0,0,0,1.21-.9s0,0,0,0a2.25,2.25,0,0,0,.08-1.29C168.18,153.5,167.2,150.85,166.59,148.09Zm-3,9.17a.88.88,0,1,1,.88-.88A.89.89,0,0,1,163.55,157.26ZM160.77,154a.88.88,0,1,1,.87-.88A.89.89,0,0,1,160.77,154Zm-.47,7.43a.88.88,0,1,1,.88-.88A.89.89,0,0,1,160.3,161.44Zm-4-16.69a.75.75,0,0,1,1,.19v0c.29.49-.65,1.95-1.29,1.57S155.84,145,156.33,144.75Zm-2.91,17.3a1.07,1.07,0,0,1-.35-1,1.71,1.71,0,0,1,1.67-1.49,1,1,0,0,1,.65.5c.52.92-.62,2.29-1.59,2.1A.8.8,0,0,1,153.42,162.05Zm.38-4.33a.88.88,0,1,1,.87-.87A.87.87,0,0,1,153.8,157.72Zm-.93-2.78a.88.88,0,1,1,.88-.88A.89.89,0,0,1,152.87,154.94Zm-.93-4.22a.81.81,0,1,1,.88-.81A.85.85,0,0,1,151.94,150.72Zm0,12.58a.88.88,0,1,1,.88-.88A.89.89,0,0,1,151.94,163.3Zm-1.86-1.4a.88.88,0,0,1,0-1.75.88.88,0,1,1,0,1.75Zm.16-3.67a1.25,1.25,0,0,1-1.26.16.89.89,0,0,1-.36-.15.87.87,0,0,1-.26-.39,1.58,1.58,0,0,1-.07-1.11c.39-1.09,1.43-.66,1.91.09a1.27,1.27,0,0,1,.25.84A.86.86,0,0,1,150.24,158.23Zm-2.94-3.29a.88.88,0,1,1,0-1.75.88.88,0,0,1,0,1.75Z"/><path class="cls-5" d="M167.27,161.08a.88.88,0,1,1-.88.88A.88.88,0,0,1,167.27,161.08Z"/><path class="cls-5" d="M163.55,155.51a.88.88,0,1,1-.87.87A.89.89,0,0,1,163.55,155.51Z"/><path class="cls-5" d="M160.77,152.26a.88.88,0,1,1-.88.87A.88.88,0,0,1,160.77,152.26Z"/><path class="cls-5" d="M160.3,159.69a.88.88,0,1,1-.87.87A.89.89,0,0,1,160.3,159.69Z"/><path class="cls-5" d="M160.3,164.8a.88.88,0,1,1-.87.87A.89.89,0,0,1,160.3,164.8Z"/><path class="cls-5" d="M157.3,145c.29.49-.65,1.95-1.29,1.57s-.17-1.53.32-1.78a.75.75,0,0,1,1,.19Z"/><path class="cls-5" d="M154.87,105.14a18.57,18.57,0,0,1,.67,7.41l-3.54.16a4.51,4.51,0,0,1-1.87-.19,1,1,0,0,1-.46-.36,1.08,1.08,0,0,1-.12-.5c-.18-2,.24-4.15-.27-6.15a8.38,8.38,0,0,1-.36-1.32,7.39,7.39,0,0,1,2-.36,13.73,13.73,0,0,1,2.58.1,1.37,1.37,0,0,1,1.41,1.21Z"/><path class="cls-5" d="M155.39,160.11c.52.92-.62,2.29-1.59,2.1a.8.8,0,0,1-.38-.16,1.07,1.07,0,0,1-.35-1,1.71,1.71,0,0,1,1.67-1.49A1,1,0,0,1,155.39,160.11Z"/><path class="cls-5" d="M153.8,156a.88.88,0,1,1-.87.88A.88.88,0,0,1,153.8,156Z"/><path class="cls-5" d="M152.87,153.19a.88.88,0,1,1-.87.87A.89.89,0,0,1,152.87,153.19Z"/><path class="cls-5" d="M151.94,149.1a.81.81,0,1,1-.87.81A.86.86,0,0,1,151.94,149.1Z"/><path class="cls-5" d="M151.94,161.55a.88.88,0,1,1-.87.87A.89.89,0,0,1,151.94,161.55Z"/><path class="cls-5" d="M151,167.58a.88.88,0,1,1,0,1.75.88.88,0,0,1,0-1.75Z"/><path class="cls-5" d="M150.08,160.15a.88.88,0,1,1,0,1.75.88.88,0,0,1,0-1.75Z"/><path class="cls-5" d="M150.2,156.83a1.27,1.27,0,0,1,.25.84.86.86,0,0,1-.21.56,1.25,1.25,0,0,1-1.26.16.89.89,0,0,1-.36-.15.87.87,0,0,1-.26-.39,1.58,1.58,0,0,1-.07-1.11C148.68,155.65,149.72,156.08,150.2,156.83Z"/><path class="cls-5" d="M147.3,153.19a.88.88,0,0,1,0,1.75.88.88,0,1,1,0-1.75Z"/><path class="cls-2" d="M160.24,42.65c-1.18-1.17-3.05-1.16-4.71-1.12S152,41.46,151,40.14c-.59-.77-.75-1.68-1.39-2.44a14.86,14.86,0,0,0-2.84-2.46,10.65,10.65,0,0,0-6-1.83c-2.38,0-5.6.5-7.43,2.16a66.36,66.36,0,0,0-9.84,11.07,27.57,27.57,0,0,0-1.9,4.12,24.92,24.92,0,0,0-1.19,2.81,13.88,13.88,0,0,0-.48,2,15.87,15.87,0,0,0-.23,2.28,8.47,8.47,0,0,0,.9,4.07,8.82,8.82,0,0,0,1,1.65,7.19,7.19,0,0,0,.68.77,9.76,9.76,0,0,0,.94.76c1.07.8,2.39,1.17,3.47,1.94a6.36,6.36,0,0,1,.87.85,9.89,9.89,0,0,1,.9,1.58c.17.37.32.75.48,1.12.27.63.53,1.26.84,1.87a14.34,14.34,0,0,0,1,1.65c.2.28.41.55.63.82a5,5,0,0,0,.89.76A8.12,8.12,0,0,0,135.91,77a7.63,7.63,0,0,0,4.51-.66,15.81,15.81,0,0,0,4-2.53c1.61-1.4,2.93-3.11,4.46-4.6.8-.78,1.67-1.5,2.46-2.3s1.52-1.67,2.24-2.55l5.75-7a11.35,11.35,0,0,0,1.4-2,8.72,8.72,0,0,0,.76-4.25c0-1.28.06-2.47.09-3.74a8.81,8.81,0,0,0-.26-2.67A4.55,4.55,0,0,0,160.24,42.65Zm-.33,7.18c0,.94,0,1.87-.15,2.8a9.77,9.77,0,0,1-.56,2.14,8.31,8.31,0,0,1-.86,1.47c-.65.8-1.4,1.52-2.12,2.26l-.66.66a13.21,13.21,0,0,0-1.15,1.33c-.32.42-.6.86-.89,1.31s-.64.91-1,1.36a31.58,31.58,0,0,1-2.63,2.8c-.66.65-1.32,1.32-1.93,2-.32.37-.64.74-1,1.1s-.65.72-1,1l-.71.66c-.13.12-.25.24-.39.35l-1.33,1.1c-.41.33-.83.64-1.24,1s-.77.6-1.18.85a9.26,9.26,0,0,1-1.22.61c-.3.12-.61.24-.92.34a6.61,6.61,0,0,1-1,.22,8.82,8.82,0,0,1-2,0,8,8,0,0,1-1.86-.48,6.8,6.8,0,0,1-1.17-.67,4.25,4.25,0,0,1-.6-.6,14,14,0,0,1-1.6-2.79l-.85-2a8.92,8.92,0,0,0-1-1.83,6.78,6.78,0,0,0-1.63-1.53,17.45,17.45,0,0,0-1.82-1l-.81-.44a7.8,7.8,0,0,1-.77-.5,7.26,7.26,0,0,1-.93-.91,9.17,9.17,0,0,1-.94-1.64,8.8,8.8,0,0,1-.55-1.81,11.79,11.79,0,0,1,0-2.72,14,14,0,0,1,.91-3.29c.47-1.09,1-2.15,1.51-3.22s.63-2.13,1.19-3.15a17.16,17.16,0,0,1,2.34-3.1c1.85-2.08,3.77-4.09,5.72-6.07a7.38,7.38,0,0,1,4.41-2.39,19.09,19.09,0,0,1,2.51-.08,15.72,15.72,0,0,1,1.81.12,6.93,6.93,0,0,1,1.5.41,13.89,13.89,0,0,1,1.39.7c.29.17.56.37.85.55.5.33,1,.64,1.49,1A8.23,8.23,0,0,1,148.33,39c.56.77.95,1.65,1.48,2.44A4.22,4.22,0,0,0,151.55,43a3.13,3.13,0,0,0,.51.19,3.39,3.39,0,0,0,.71.11,8.37,8.37,0,0,0,1,0,35.67,35.67,0,0,1,3.73.15,7.49,7.49,0,0,1,1.14.25l.31.19.16.15a3.3,3.3,0,0,1,.18.32,11.66,11.66,0,0,1,.57,2.33,16.88,16.88,0,0,1,.07,2C159.93,49.09,159.92,49.46,159.91,49.83Z"/><path class="cls-6" d="M159.29,44.38a3.3,3.3,0,0,0-.18-.32l-.16-.15-.31-.19a7.49,7.49,0,0,0-1.14-.25,35.67,35.67,0,0,0-3.73-.15,8.37,8.37,0,0,1-1,0,3.39,3.39,0,0,1-.71-.11,3.13,3.13,0,0,1-.51-.19,4.22,4.22,0,0,1-1.74-1.53c-.53-.79-.92-1.67-1.48-2.44a8.23,8.23,0,0,0-1.18-1.18c-.49-.36-1-.67-1.49-1-.29-.18-.56-.38-.85-.55a13.89,13.89,0,0,0-1.39-.7,6.93,6.93,0,0,0-1.5-.41,15.72,15.72,0,0,0-1.81-.12,19.09,19.09,0,0,0-2.51.08,7.38,7.38,0,0,0-4.41,2.39c-1.95,2-3.87,4-5.72,6.07a17.16,17.16,0,0,0-2.34,3.1c-.56,1-.7,2.11-1.19,3.15s-1,2.13-1.51,3.22a14,14,0,0,0-.91,3.29,11.79,11.79,0,0,0,0,2.72,8.8,8.8,0,0,0,.55,1.81,9.17,9.17,0,0,0,.94,1.64,7.26,7.26,0,0,0,.93.91,7.8,7.8,0,0,0,.77.5l.81.44a17.45,17.45,0,0,1,1.82,1,6.78,6.78,0,0,1,1.63,1.53,8.92,8.92,0,0,1,1,1.83l.85,2a14,14,0,0,0,1.6,2.79,4.25,4.25,0,0,0,.6.6,6.8,6.8,0,0,0,1.17.67,8,8,0,0,0,1.86.48,8.82,8.82,0,0,0,2,0,6.61,6.61,0,0,0,1-.22c.31-.1.62-.22.92-.34a9.26,9.26,0,0,0,1.22-.61c.41-.25.79-.56,1.18-.85s.83-.63,1.24-1l1.33-1.1c.14-.11.26-.23.39-.35l.71-.66c.36-.33.67-.69,1-1s.65-.73,1-1.1c.61-.71,1.27-1.38,1.93-2a31.58,31.58,0,0,0,2.63-2.8c.34-.45.67-.9,1-1.36s.57-.89.89-1.31a13.21,13.21,0,0,1,1.15-1.33l.66-.66c.72-.74,1.47-1.46,2.12-2.26a8.31,8.31,0,0,0,.86-1.47,9.77,9.77,0,0,0,.56-2.14c.11-.93.13-1.86.15-2.8,0-.37,0-.74,0-1.11a16.88,16.88,0,0,0-.07-2A11.66,11.66,0,0,0,159.29,44.38Zm-9.17,5.33a1.84,1.84,0,0,1,.31.5c.89,2.38-2.76,4.18-2.91,1.44C147.44,50.22,148.77,48.13,150.12,49.71Zm-2.29,11.53a1.78,1.78,0,0,1-1.69-2.5A4.56,4.56,0,0,1,147.45,57a1.61,1.61,0,0,1,2-.07,2,2,0,0,1,.66,2.22A2.83,2.83,0,0,1,147.83,61.24Zm-9.55-9.81-.33.13a2.25,2.25,0,0,1-.36.06,1.63,1.63,0,0,1-1.21-.31,1.7,1.7,0,0,1-.74-1.14,2.66,2.66,0,0,1,.27-1.82,2.45,2.45,0,0,1,.68-.56,4,4,0,0,1,1.17-.53,1.51,1.51,0,0,1,1.85.89,2.78,2.78,0,0,1-.81,3A2.3,2.3,0,0,1,138.28,51.43Zm-2.17,19.08a1.32,1.32,0,0,1-.56-1,2.67,2.67,0,0,1,.2-1.18c.32-.86,1-1.87,2-1.71a2,2,0,0,1,1.43.89l.06.09c.65,1.18-.28,2.43-1.38,2.89A1.88,1.88,0,0,1,136.11,70.51Zm.78-26.18c-.72-.11-1.33.23-2-.23l0,0c-1.25-.89-.32-2.57.87-3,1.75-.6,3.51.21,2.62,2.34A1.41,1.41,0,0,1,136.89,44.33Zm-.36,16.82A2.46,2.46,0,0,1,135,62.73a1.56,1.56,0,0,1-2-1.45,4.15,4.15,0,0,1,.41-2.36,2.17,2.17,0,0,1,2-1.18A1.24,1.24,0,0,1,136,58a1.68,1.68,0,0,1,.54.95,4.13,4.13,0,0,1,.1,1.88A2.59,2.59,0,0,1,136.53,61.15Zm-5.77-8.08a3.24,3.24,0,0,1-1.19,1.22,2.76,2.76,0,0,1-2.28.53c-1.79-.58-3.19-1.89-2.26-3.93A4.31,4.31,0,0,1,126.8,49a3.45,3.45,0,0,1,1.88-.57,2.2,2.2,0,0,1,1.86,1.06,4.15,4.15,0,0,1,.47,2.7A3,3,0,0,1,130.76,53.07Z"/><path class="cls-2" d="M150.43,50.21c.89,2.38-2.76,4.18-2.91,1.44-.08-1.43,1.25-3.52,2.6-1.94A1.84,1.84,0,0,1,150.43,50.21Z"/><path class="cls-2" d="M149.42,56.9a2,2,0,0,1,.66,2.22,2.83,2.83,0,0,1-2.25,2.12,1.78,1.78,0,0,1-1.69-2.5A4.56,4.56,0,0,1,147.45,57,1.61,1.61,0,0,1,149.42,56.9Z"/><path class="cls-2" d="M139.61,48.15a2.78,2.78,0,0,1-.81,3,2.3,2.3,0,0,1-.52.33l-.33.13a2.25,2.25,0,0,1-.36.06,1.63,1.63,0,0,1-1.21-.31,1.7,1.7,0,0,1-.74-1.14,2.66,2.66,0,0,1,.27-1.82,2.45,2.45,0,0,1,.68-.56,4,4,0,0,1,1.17-.53,1.51,1.51,0,0,1,1.85.89Z"/><path class="cls-2" d="M139.23,67.59c.65,1.18-.28,2.43-1.38,2.89a1.88,1.88,0,0,1-1.74,0,1.32,1.32,0,0,1-.56-1,2.67,2.67,0,0,1,.2-1.18c.32-.86,1-1.87,2-1.71a2,2,0,0,1,1.43.89Z"/><path class="cls-2" d="M134.84,44.07l0,0c.67.46,1.28.12,2,.23a1.41,1.41,0,0,0,1.44-.89c.89-2.13-.87-2.94-2.62-2.34C134.52,41.5,133.59,43.18,134.84,44.07Zm1.18-1h0v0Z"/><path class="cls-2" d="M136.54,58.9a4.13,4.13,0,0,1,.1,1.88,2.59,2.59,0,0,1-.11.37A2.46,2.46,0,0,1,135,62.73a1.56,1.56,0,0,1-2-1.45,4.15,4.15,0,0,1,.41-2.36,2.17,2.17,0,0,1,2-1.18A1.24,1.24,0,0,1,136,58,1.68,1.68,0,0,1,136.54,58.9Z"/><path class="cls-2" d="M130.54,49.49a4.15,4.15,0,0,1,.47,2.7,3,3,0,0,1-.25.88,3.24,3.24,0,0,1-1.19,1.22,2.76,2.76,0,0,1-2.28.53c-1.79-.58-3.19-1.89-2.26-3.93A4.31,4.31,0,0,1,126.8,49a3.45,3.45,0,0,1,1.88-.57A2.2,2.2,0,0,1,130.54,49.49Z"/><path class="cls-2" d="M117.87,99.27a27.25,27.25,0,0,0-.89-5c-1.1-3.6-3.54-7-7.64-7.09-1.23,0-1.3-.27-1.29-1.3s-.11-2.13-.19-3.18c-.18-2.19-.43-4.37-.67-6.56a72.75,72.75,0,0,1-.58-12.77c.08-1.1.24-2.19.4-3.28l.75-5c.17-1.12.95-3.25.41-4.31-.41-.79-1.75-.21-2.44-.18-2.71.12-5.36.4-8.07.47a3.24,3.24,0,0,0-2.57.85,3.2,3.2,0,0,0-.3,2.44c.24,1.67.48,3.35.86,5s1.1,3,1.56,4.63Q98.8,69.49,100.28,75q.94,3.57,1.85,7.14c.37,1.47,2.06,5.12.6,6.31a15.83,15.83,0,0,1-1.43.85,5.15,5.15,0,0,0-1.54,2,16.75,16.75,0,0,0-1.39,5.91,48.42,48.42,0,0,0-.6,6.05,20,20,0,0,0,1.38,8.16,9,9,0,0,0,7.64,5.26,6.78,6.78,0,0,0,4-.82,15.92,15.92,0,0,0,3.84-2.72,12.43,12.43,0,0,0,3.59-6.35,15.22,15.22,0,0,0-.06-5.17C118.08,100.83,118,100.05,117.87,99.27Zm-2.73,11.42c-1.8,2.42-4.25,4.94-7.47,4.89a8.17,8.17,0,0,1-6.92-4.34c-1.67-3.35-1.82-7.22-1.51-10.87a31.25,31.25,0,0,1,.85-5.78,11.71,11.71,0,0,1,1.54-3.44,5.9,5.9,0,0,1,1.19-1.44c.4-.29.92-.28,1.31-.57a1.68,1.68,0,0,0,.48-1.49c-.08-3.06-1.1-5.7-2-8.59a86.64,86.64,0,0,1-2.22-9c-.85-4.55-2.51-9-3.84-13.5a5.62,5.62,0,0,1-.34-2.68,1.08,1.08,0,0,1,.4-.7A1.43,1.43,0,0,1,97.2,53c2.86-.32,5.69-1.26,8.56-1.25a.73.73,0,0,1,.46.11.65.65,0,0,1,.21.42,8.86,8.86,0,0,1-.45,3.93c-1.25,5.21-.84,10.62-.42,15.91.22,2.82.36,5.65.59,8.47.11,1.41.25,2.81.44,4.21a13.46,13.46,0,0,0,.35,2.84c.3.87,1.68.73,2.45.89,3.86.76,5.91,4.12,6.84,7.68a32,32,0,0,1,1,6.41,14.19,14.19,0,0,1-.7,5.56A10.47,10.47,0,0,1,115.14,110.69Z"/><path class="cls-5" d="M116.23,96.21c-.93-3.56-3-6.92-6.84-7.68-.77-.16-2.15,0-2.45-.89a13.46,13.46,0,0,1-.35-2.84c-.19-1.4-.33-2.8-.44-4.21-.23-2.82-.37-5.65-.59-8.47-.42-5.29-.83-10.7.42-15.91a8.86,8.86,0,0,0,.45-3.93.65.65,0,0,0-.21-.42.73.73,0,0,0-.46-.11c-2.87,0-5.7.93-8.56,1.25a1.43,1.43,0,0,0-.58.16,1.08,1.08,0,0,0-.4.7,5.62,5.62,0,0,0,.34,2.68c1.33,4.46,3,8.95,3.84,13.5a86.64,86.64,0,0,0,2.22,9c.89,2.89,1.91,5.53,2,8.59a1.68,1.68,0,0,1-.48,1.49c-.39.29-.91.28-1.31.57a5.9,5.9,0,0,0-1.19,1.44,11.71,11.71,0,0,0-1.54,3.44,31.25,31.25,0,0,0-.85,5.78c-.31,3.65-.16,7.52,1.51,10.87a8.17,8.17,0,0,0,6.92,4.34c3.22,0,5.67-2.47,7.47-4.89a10.47,10.47,0,0,0,1.44-2.51,14.19,14.19,0,0,0,.7-5.56A32,32,0,0,0,116.23,96.21Zm-1.72,8.27a5.61,5.61,0,0,1,0,.58,13,13,0,0,1-.2,1.76,8.06,8.06,0,0,1-.38,1.27l-.23.6a10.74,10.74,0,0,1-.49,1,6.1,6.1,0,0,1-.55,1,.67.67,0,0,1-.39.31.68.68,0,0,1-.82-.47.66.66,0,0,1,.07-.51,5.83,5.83,0,0,0,.51-.87c.14-.29.27-.57.41-.85s.15-.39.22-.57a9,9,0,0,0,.45-1.75,15.5,15.5,0,0,0,.09-1.8c0-.62,0-1.23,0-1.85s0-1.21,0-1.82-.06-1.1-.11-1.66c0-.25-.08-.51-.13-.77a8.84,8.84,0,0,0-.27-1.13,7.46,7.46,0,0,0-.31-.83,8,8,0,0,0-.79-1.5,6.84,6.84,0,0,0-1-1c-.21-.16-.43-.31-.65-.46a.69.69,0,0,1-.31-.4.7.7,0,0,1,.07-.51.68.68,0,0,1,.4-.3.52.52,0,0,1,.18,0,.6.6,0,0,1,.33.08,10.06,10.06,0,0,1,1.56,1.27,5.51,5.51,0,0,1,1,1.52,12.06,12.06,0,0,1,1,2.66c.06.35.12.69.17,1s.07.56.09.84c0,.47.06.93.08,1.39,0,.69,0,1.38,0,2.08v1.65ZM103.13,98.2a.67.67,0,0,1-.66.67.68.68,0,0,1-.67-.67,29.47,29.47,0,0,1,.22-3,16.78,16.78,0,0,1,.6-2.29,3.4,3.4,0,0,1,1.25-2,.61.61,0,0,1,.76.07h0c.24.31,0,.74-.21,1.06C103.22,94,103.23,96,103.13,98.2Z"/><path class="cls-2" d="M114.51,102.83v1.65a5.61,5.61,0,0,1,0,.58,13,13,0,0,1-.2,1.76,8.06,8.06,0,0,1-.38,1.27l-.23.6a10.74,10.74,0,0,1-.49,1,6.1,6.1,0,0,1-.55,1,.67.67,0,0,1-.39.31.68.68,0,0,1-.82-.47.66.66,0,0,1,.07-.51,5.83,5.83,0,0,0,.51-.87c.14-.29.27-.57.41-.85s.15-.39.22-.57a9,9,0,0,0,.45-1.75,15.5,15.5,0,0,0,.09-1.8c0-.62,0-1.23,0-1.85s0-1.21,0-1.82-.06-1.1-.11-1.66c0-.25-.08-.51-.13-.77a8.84,8.84,0,0,0-.27-1.13,7.46,7.46,0,0,0-.31-.83,8,8,0,0,0-.79-1.5,6.84,6.84,0,0,0-1-1c-.21-.16-.43-.31-.65-.46a.69.69,0,0,1-.31-.4.7.7,0,0,1,.07-.51.68.68,0,0,1,.4-.3.52.52,0,0,1,.18,0,.6.6,0,0,1,.33.08,10.06,10.06,0,0,1,1.56,1.27,5.51,5.51,0,0,1,1,1.52,12.06,12.06,0,0,1,1,2.66c.06.35.12.69.17,1s.07.56.09.84c0,.47.06.93.08,1.39C114.51,101.44,114.51,102.13,114.51,102.83Z"/><path class="cls-2" d="M104.64,91c.24.31,0,.74-.21,1.06-1.21,1.9-1.2,4-1.3,6.11a.67.67,0,0,1-.66.67.68.68,0,0,1-.67-.67,29.47,29.47,0,0,1,.22-3,16.78,16.78,0,0,1,.6-2.29,3.4,3.4,0,0,1,1.25-2,.61.61,0,0,1,.76.07Z"/><path class="cls-2" d="M21,170a28.51,28.51,0,0,0,5,.9c3.76.23,7.78-.88,9.31-4.69.46-1.14.7-1.12,1.66-.76s2,.65,3,.93c2.12.6,4.25,1.13,6.38,1.67a72,72,0,0,1,12.18,3.9c1,.46,2,1,2.94,1.52L66,175.89c1,.55,2.71,2,3.9,1.89.87-.11.81-1.57,1-2.23.83-2.58,1.49-5.16,2.36-7.73A2.41,2.41,0,0,0,71.17,164c-1.65-.36-3.31-.71-5-.93s-3.22,0-4.88-.15q-5.71-.43-11.43-1c-2.44-.23-4.89-.49-7.33-.75-1.51-.17-5.53.15-6.13-1.64-.18-.52-.17-1.09-.3-1.63a5,5,0,0,0-1.31-2.13,16.52,16.52,0,0,0-5-3.36,49.33,49.33,0,0,0-5.46-2.68,20.1,20.1,0,0,0-8.13-1.54,9,9,0,0,0-7.59,5.32,6.78,6.78,0,0,0-.64,4.07,16.38,16.38,0,0,0,1.21,4.55,12.52,12.52,0,0,0,4.7,5.57,15.43,15.43,0,0,0,4.87,1.75C19.49,169.63,20.26,169.79,21,170Zm-9.76-6.54c-1.64-2.53-3.15-5.71-2-8.7a8.19,8.19,0,0,1,6.48-5c3.72-.39,7.4.82,10.71,2.37a30.78,30.78,0,0,1,5.13,2.82,12,12,0,0,1,2.69,2.64,5.66,5.66,0,0,1,.92,1.62c.14.48,0,1,.08,1.43s.72.79,1.24,1c2.9,1,5.72.95,8.74,1.13a84.41,84.41,0,0,1,9.23,1.07c4.57.78,9.35.79,14,1.09a5.49,5.49,0,0,1,2.63.63,1,1,0,0,1,.51.61,1.23,1.23,0,0,1,0,.6c-.69,2.79-.79,5.77-1.8,8.46a.85.85,0,0,1-.26.4.69.69,0,0,1-.47,0,8.94,8.94,0,0,1-3.53-1.78c-4.45-3-9.66-4.49-14.76-5.94-2.73-.78-5.42-1.64-8.15-2.4-1.36-.39-2.72-.75-4.1-1.06a14.15,14.15,0,0,0-2.79-.66c-.92,0-1.27,1.32-1.68,2-2.06,3.35-5.92,4.1-9.58,3.73a32.33,32.33,0,0,1-6.38-1.25,14.11,14.11,0,0,1-5-2.59A10.45,10.45,0,0,1,11.27,163.44Z"/><path class="cls-5" d="M24.47,169.5c3.66.37,7.52-.38,9.58-3.73.41-.67.76-2,1.68-2a14.15,14.15,0,0,1,2.79.66c1.38.31,2.74.67,4.1,1.06,2.73.76,5.42,1.62,8.15,2.4,5.1,1.45,10.31,2.94,14.76,5.94a8.94,8.94,0,0,0,3.53,1.78.69.69,0,0,0,.47,0,.85.85,0,0,0,.26-.4c1-2.69,1.11-5.67,1.8-8.46a1.23,1.23,0,0,0,0-.6,1,1,0,0,0-.51-.61,5.49,5.49,0,0,0-2.63-.63c-4.64-.3-9.42-.31-14-1.09a84.41,84.41,0,0,0-9.23-1.07c-3-.18-5.84-.14-8.74-1.13-.52-.17-1.09-.44-1.24-1s.06-.95-.08-1.43a5.66,5.66,0,0,0-.92-1.62,12,12,0,0,0-2.69-2.64,30.78,30.78,0,0,0-5.13-2.82c-3.31-1.55-7-2.76-10.71-2.37a8.19,8.19,0,0,0-6.48,5c-1.17,3,.34,6.17,2,8.7a10.45,10.45,0,0,0,1.86,2.22,14.11,14.11,0,0,0,5,2.59A32.33,32.33,0,0,0,24.47,169.5ZM17.31,165l-.54-.21a13.63,13.63,0,0,1-1.57-.8,7.64,7.64,0,0,1-1.07-.8c-.16-.14-.32-.28-.47-.43a8.73,8.73,0,0,1-.8-.81,6.47,6.47,0,0,1-.72-.85.74.74,0,0,1-.14-.48.61.61,0,0,1,.24-.45.69.69,0,0,1,.48-.15.61.61,0,0,1,.45.24,6.11,6.11,0,0,0,.65.78c.21.23.43.46.65.68s.3.28.46.41a8.9,8.9,0,0,0,1.48,1,15.34,15.34,0,0,0,1.66.71l1.73.64c.56.21,1.14.41,1.71.6s1.06.33,1.6.47l.76.16a11.32,11.32,0,0,0,1.17.14c.29,0,.58,0,.88,0a8.69,8.69,0,0,0,1.68-.22,7.35,7.35,0,0,0,1.24-.58c.23-.14.44-.3.66-.45a.7.7,0,0,1,.48-.14.65.65,0,0,1,.6.71.53.53,0,0,1,0,.18.58.58,0,0,1-.2.28,9.62,9.62,0,0,1-1.72,1,5.3,5.3,0,0,1-1.8.45,11.57,11.57,0,0,1-2.82,0l-1-.2-.82-.21c-.45-.12-.89-.26-1.32-.41l-2-.7-1.08-.4Zm9.85-8.48a.67.67,0,0,1-.39-.85.66.66,0,0,1,.85-.39,24.38,24.38,0,0,1,2.7,1.24,16,16,0,0,1,1.94,1.35,3.43,3.43,0,0,1,1.44,1.87.62.62,0,0,1-.33.69h0c-.37.12-.69-.25-.92-.56C31.08,158.08,29.15,157.37,27.16,156.53Z"/><path class="cls-2" d="M18.86,165.59l-1.08-.4-.47-.18-.54-.21a13.63,13.63,0,0,1-1.57-.8,7.64,7.64,0,0,1-1.07-.8c-.16-.14-.32-.28-.47-.43a8.73,8.73,0,0,1-.8-.81,6.47,6.47,0,0,1-.72-.85.74.74,0,0,1-.14-.48.61.61,0,0,1,.24-.45.69.69,0,0,1,.48-.15.61.61,0,0,1,.45.24,6.11,6.11,0,0,0,.65.78c.21.23.43.46.65.68s.3.28.46.41a8.9,8.9,0,0,0,1.48,1,15.34,15.34,0,0,0,1.66.71l1.73.64c.56.21,1.14.41,1.71.6s1.06.33,1.6.47l.76.16a11.32,11.32,0,0,0,1.17.14c.29,0,.58,0,.88,0a8.69,8.69,0,0,0,1.68-.22,7.35,7.35,0,0,0,1.24-.58c.23-.14.44-.3.66-.45a.7.7,0,0,1,.48-.14.65.65,0,0,1,.6.71.53.53,0,0,1,0,.18.58.58,0,0,1-.2.28,9.62,9.62,0,0,1-1.72,1,5.3,5.3,0,0,1-1.8.45,11.57,11.57,0,0,1-2.82,0l-1-.2-.82-.21c-.45-.12-.89-.26-1.32-.41Z"/><path class="cls-2" d="M33.36,160.44c-.37.12-.69-.25-.92-.56-1.36-1.8-3.29-2.51-5.28-3.35a.67.67,0,0,1-.39-.85.66.66,0,0,1,.85-.39,24.38,24.38,0,0,1,2.7,1.24,16,16,0,0,1,1.94,1.35,3.43,3.43,0,0,1,1.44,1.87.62.62,0,0,1-.33.69Z"/><path class="cls-2" d="M28.37,14.2h0a0,0,0,0,1,0,0Zm33.85,3.48a44.54,44.54,0,0,0-3-3.69c-1.83-2.07-3.57-4.35-5.83-6a13.4,13.4,0,0,0-1.45-.89c-.55-.31-1.13-.55-1.71-.81l-1.4-.59c-.66-.28-1.31-.58-2-.87a16.5,16.5,0,0,0-3.5-1.15,14.83,14.83,0,0,0-1.88-.22c-.49,0-1-.05-1.46-.05h-.48c-1.13,0-2.25,0-3.38.07-.86,0-1.73.08-2.59.12-.28,0-.57,0-.85,0L31,3.86c-9.24.93-18.09,5.62-22.59,13.92C7.28,19.86,6,22.51,6.12,24.94a13.46,13.46,0,0,0,.28,1.89A10.17,10.17,0,0,0,7,28.74a9,9,0,0,0,.78,1.47,9,9,0,0,0,1.25,1.43,7.85,7.85,0,0,0,1.42,1,6,6,0,0,0,1.68.68,9.52,9.52,0,0,0,2.32.13c1.66,0,3.3-.27,4.94-.44l2.8-.31,1.31-.13c.41,0,.82-.06,1.23-.08l1,0a.79.79,0,0,0,.37.1H41.6c1.76,0,3.52,0,5.27-.1.86,0,1.72-.14,2.57-.24l2.4-.25,2.8-.26a10.63,10.63,0,0,0,5.94-2,9.9,9.9,0,0,0,1.85-1.49,9.54,9.54,0,0,0,1-1.48,6,6,0,0,0,1.06-2.6,0,0,0,0,0,0,0,6.57,6.57,0,0,0-.29-2A13.14,13.14,0,0,0,62.22,17.68Zm-.38,9c-3.37,3.92-8.28,3.63-13,3.88-5.22.28-10.46.34-15.69.16-1.41-.05-2.81-.12-4.22-.06s-2.91.26-4.36.42-2.76.27-4.13.39l-4.31.37a12.93,12.93,0,0,1-3.88-.06c-3.39-.73-5-5.26-4.28-8.33a18.52,18.52,0,0,1,2.33-5.2c2-3.41,4.21-7.23,7.94-8.86a1.41,1.41,0,0,1,.44-.14,1.29,1.29,0,0,1,.6.17c3.47,1.56,6,4.49,9.21,6.56a3.64,3.64,0,0,0,1.09.56,1.36,1.36,0,0,0,1.18-.15c.83-.62.23-2.55,0-3.37a17.54,17.54,0,0,0-3.62-6.88,12.82,12.82,0,0,1,4.36-1c1.84-.1,2.07.24,3.13,1.66.25.33.49.67.76,1,1.76,2.06,3.78,4.46,6.31,5.51a1.71,1.71,0,0,0,1.58.07c.5-.35.49-1.07.42-1.67a23,23,0,0,0-1.51-5.71c-.69-1.71,3-.09,3.65.19l1.73.77.65.27c0,.48.09,1,.14,1.44.24,2.34.88,4.78,1.3,7.13a1.34,1.34,0,0,0,.42.9,1.3,1.3,0,0,0,.43.15,3.92,3.92,0,0,0,3.29-1c.93-.85,1-2.38,1.75-3.39a.32.32,0,0,1,.15-.13.29.29,0,0,1,.24.1c2.39,2,4.15,5.36,6,7.92a7,7,0,0,1,1.11,2,4,4,0,0,1,0,2.16A5.67,5.67,0,0,1,61.84,26.63ZM54.16,11.79a8.29,8.29,0,0,1-.45,1.64,4.38,4.38,0,0,1-.38.71,5.29,5.29,0,0,1-.71.71,4.75,4.75,0,0,1-.89.53,2,2,0,0,1-.32.1h0l-.17,0a.41.41,0,0,1,0-.09,11.78,11.78,0,0,1-.25-1.21c0-.26-.11-.53-.16-.8-.09-.49-.17-1-.27-1.47s-.23-1.19-.34-1.78-.16-1-.23-1.44c0-.26,0-.51-.08-.77l.49.22a14,14,0,0,1,2.5,1.49c.37.29.72.6,1.06.92l.42.41h0C54.27,11.22,54.22,11.51,54.16,11.79Zm-2.91,3.68h0Zm-8.93-3.42L42,11.83c-1-.83-2-1.64-3-2.55-.5-.48-1-1-1.48-1.48-.18-.18-.33-.37-.5-.57l-.66-.77-1-1.33.64,0c1,0,2-.06,2.93-.07h1.18a.89.89,0,0,0,.11.4c.48,1,1,2.05,1.49,3.07l.24.58a6.21,6.21,0,0,1,.43,1.47,6.22,6.22,0,0,1,0,1.22A2.74,2.74,0,0,1,42.32,12.05Zm-12.47,3.1h0a10.61,10.61,0,0,1-.94-.6l-.57-.4-.09-.07a1.18,1.18,0,0,0-.22-.17l-.12-.09-.11-.08-.13-.1-.1-.08L27,13.1l-.49-.41c-.43-.38-.86-.74-1.28-1.12s-1.09-1-1.65-1.48c-.31-.27-.64-.52-1-.76a9.94,9.94,0,0,0-1-.59c-.37-.2-.75-.38-1.14-.55Q21.2,7.82,22,7.5a25.42,25.42,0,0,1,3.19-1.07l.31-.08c.11.12.22.23.32.36.6.81,1.11,1.69,1.64,2.55a27,27,0,0,1,1.92,3.4,8.71,8.71,0,0,1,.55,1.8,3.13,3.13,0,0,1,0,.53S29.86,15.1,29.85,15.15Zm-.09,0h0Z"/><path class="cls-7" d="M63,22.27a4,4,0,0,1,0,2.16,5.67,5.67,0,0,1-1.18,2.2c-3.37,3.92-8.28,3.63-13,3.88-5.22.28-10.46.34-15.69.16-1.41-.05-2.81-.12-4.22-.06s-2.91.26-4.36.42-2.76.27-4.13.39l-4.31.37a12.93,12.93,0,0,1-3.88-.06c-3.39-.73-5-5.26-4.28-8.33a18.52,18.52,0,0,1,2.33-5.2c2-3.41,4.21-7.23,7.94-8.86a1.41,1.41,0,0,1,.44-.14,1.29,1.29,0,0,1,.6.17c3.47,1.56,6,4.49,9.21,6.56a3.64,3.64,0,0,0,1.09.56,1.36,1.36,0,0,0,1.18-.15c.83-.62.23-2.55,0-3.37a17.54,17.54,0,0,0-3.62-6.88,12.82,12.82,0,0,1,4.36-1c1.84-.1,2.07.24,3.13,1.66.25.33.49.67.76,1,1.76,2.06,3.78,4.46,6.31,5.51a1.71,1.71,0,0,0,1.58.07c.5-.35.49-1.07.42-1.67a23,23,0,0,0-1.51-5.71c-.69-1.71,3-.09,3.65.19l1.73.77.65.27c0,.48.09,1,.14,1.44.24,2.34.88,4.78,1.3,7.13a1.34,1.34,0,0,0,.42.9,1.3,1.3,0,0,0,.43.15,3.92,3.92,0,0,0,3.29-1c.93-.85,1-2.38,1.75-3.39a.32.32,0,0,1,.15-.13.29.29,0,0,1,.24.1c2.39,2,4.15,5.36,6,7.92A7,7,0,0,1,63,22.27Z"/><path class="cls-8" d="M54.32,10.92h0c0,.29-.09.58-.15.86a8.29,8.29,0,0,1-.45,1.64,4.38,4.38,0,0,1-.38.71,5.29,5.29,0,0,1-.71.71,4.75,4.75,0,0,1-.89.53,2,2,0,0,1-.32.1h0l-.17,0a.41.41,0,0,1,0-.09,11.78,11.78,0,0,1-.25-1.21c0-.26-.11-.53-.16-.8-.09-.49-.17-1-.27-1.47s-.23-1.19-.34-1.78-.16-1-.23-1.44c0-.26,0-.51-.08-.77l.49.22a14,14,0,0,1,2.5,1.49c.37.29.72.6,1.06.92Z"/><path class="cls-8" d="M42.38,10.55a6.22,6.22,0,0,1,0,1.22,2.74,2.74,0,0,1,0,.28L42,11.83c-1-.83-2-1.64-3-2.55-.5-.48-1-1-1.48-1.48-.18-.18-.33-.37-.5-.57l-.66-.77-1-1.33.64,0c1,0,2-.06,2.93-.07h1.18a.89.89,0,0,0,.11.4c.48,1,1,2.05,1.49,3.07l.24.58A6.21,6.21,0,0,1,42.38,10.55Z"/><path class="cls-8" d="M29.88,14.46a3.13,3.13,0,0,1,0,.53s0,.11,0,.16h0a10.61,10.61,0,0,1-.94-.6l-.57-.4-.09-.07a1.18,1.18,0,0,0-.22-.17l-.12-.09-.11-.08-.13-.1-.1-.08L27,13.1l-.49-.41c-.43-.38-.86-.74-1.28-1.12s-1.09-1-1.65-1.48c-.31-.27-.64-.52-1-.76a9.94,9.94,0,0,0-1-.59c-.37-.2-.75-.38-1.14-.55Q21.2,7.82,22,7.5a25.42,25.42,0,0,1,3.19-1.07l.31-.08c.11.12.22.23.32.36.6.81,1.11,1.69,1.64,2.55a27,27,0,0,1,1.92,3.4A8.71,8.71,0,0,1,29.88,14.46Z"/><path class="cls-2" d="M28.38,14.21h0A0,0,0,0,1,28.38,14.21Z"/><path class="cls-2" d="M182,77.66c-.8-1.89-1-3.14-2.62-4.51-4.59-3.84-11.69-4.56-17.4-3.64-7.38,1.19-11.54,5.88-14.57,12.52a12.61,12.61,0,0,0-1.13,3.54c-.61,4.85,3.75,8.1,7.69,9.8,5.23,2.25,10.54,3,16.07.93,6.22-2.3,13.35-9,12.57-16.23A8.89,8.89,0,0,0,182,77.66Zm-1.87,7a12.12,12.12,0,0,1-.59,1.13c-.26.42-.56.82-.86,1.22a22,22,0,0,1-3.57,3.59,27.9,27.9,0,0,1-2.4,1.61,23.9,23.9,0,0,1-2.88,1.51,16.09,16.09,0,0,1-1.64.6,12.41,12.41,0,0,1-2,.44,16.7,16.7,0,0,1-2.74.1c-.45,0-.9,0-1.35-.08-.91-.07-1.82-.14-2.72-.26A22.69,22.69,0,0,1,154,93.2a11.05,11.05,0,0,1-2.22-1.26,9.56,9.56,0,0,1-1.19-1.19,7.94,7.94,0,0,1-.76-1.29,7.23,7.23,0,0,1-.3-1.13c0-.21,0-.43,0-.64a4.79,4.79,0,0,1,.06-.85,18,18,0,0,1,.51-2.29,16.54,16.54,0,0,1,.58-1.72c.2-.52.41-1,.62-1.56s.47-1,.7-1.48a18.39,18.39,0,0,1,1.74-2.93,18.09,18.09,0,0,1,1.25-1.38c.34-.34.71-.65,1.08-1l.14,0,.41-.17A3.12,3.12,0,0,0,157,74l.2-.14a2.54,2.54,0,0,0,.24-.2l.11-.07a8.12,8.12,0,0,1,1.21-.62,11.69,11.69,0,0,1,2.67-.71,31,31,0,0,1,4.31-.08l1.2,0c.66,0,1.31.07,2,.12s1.17.12,1.75.19a19.77,19.77,0,0,1,4.74,1.21,12.6,12.6,0,0,1,2.42,1.38,12.91,12.91,0,0,1,2,2,6.58,6.58,0,0,1,.68,1.18,6.79,6.79,0,0,1,.36,1.34,11.61,11.61,0,0,1,0,2.5A12.57,12.57,0,0,1,180.11,84.71Z"/><path class="cls-7" d="M180.47,78.23a6.58,6.58,0,0,0-.68-1.18,12.91,12.91,0,0,0-2-2,12.6,12.6,0,0,0-2.42-1.38,19.77,19.77,0,0,0-4.74-1.21c-.58-.07-1.17-.14-1.75-.19s-1.31-.11-2-.12l-1.2,0a31,31,0,0,0-4.31.08,11.69,11.69,0,0,0-2.67.71,8.12,8.12,0,0,0-1.21.62l-.11.07a2.54,2.54,0,0,1-.24.2L157,74a3.12,3.12,0,0,1-.4.32l-.41.17-.14,0c-.37.32-.74.63-1.08,1a18.09,18.09,0,0,0-1.25,1.38,18.39,18.39,0,0,0-1.74,2.93c-.23.5-.47,1-.7,1.48s-.42,1-.62,1.56a16.54,16.54,0,0,0-.58,1.72,18,18,0,0,0-.51,2.29,4.79,4.79,0,0,0-.06.85c0,.21,0,.43,0,.64a7.23,7.23,0,0,0,.3,1.13,7.94,7.94,0,0,0,.76,1.29,9.56,9.56,0,0,0,1.19,1.19A11.05,11.05,0,0,0,154,93.2a22.69,22.69,0,0,0,5.39,1.37c.9.12,1.81.19,2.72.26.45,0,.9.07,1.35.08a16.7,16.7,0,0,0,2.74-.1,12.41,12.41,0,0,0,2-.44,16.09,16.09,0,0,0,1.64-.6,23.9,23.9,0,0,0,2.88-1.51,27.9,27.9,0,0,0,2.4-1.61,22,22,0,0,0,3.57-3.59c.3-.4.6-.8.86-1.22a12.12,12.12,0,0,0,.59-1.13,12.57,12.57,0,0,0,.72-2.64,11.61,11.61,0,0,0,0-2.5A6.79,6.79,0,0,0,180.47,78.23Zm-11.09,3.61c-.5.45-1,.89-1.54,1.3l-.33.24.39.34c.3.24.59.5.88.75s.84.76,1.28,1.11l.54.38a1.18,1.18,0,1,1-1.19,2,11.34,11.34,0,0,1-1.3-1l-.67-.6-1-.84-1-.87L165,85l-1.39.79c-.49.28-1,.55-1.47.86s-.86.58-1.28.9c-.57.46-1.13.94-1.68,1.42s-1.21,1-1.8,1.58a1.18,1.18,0,0,1-1.67-1.67c.71-.64,1.43-1.26,2.14-1.88a30,30,0,0,1,2.75-2.16c1-.65,2-1.19,3-1.77l-.9-.82c-.53-.49-1.07-1-1.57-1.49-.79-.84-1.49-1.77-2.2-2.68a1.12,1.12,0,0,1-.11-.91,1.19,1.19,0,0,1,1.45-.83,1.29,1.29,0,0,1,.52.3l.18.24.23.29a20.06,20.06,0,0,0,1.9,2.22c.44.43.9.84,1.35,1.26l1.26,1.15c.25-.17.49-.34.73-.53,1.05-.83,2-1.76,3-2.68.71-.67,1.39-1.36,2.06-2.06a1.16,1.16,0,0,1,.83-.34,1.24,1.24,0,0,1,.85.34,1.2,1.2,0,0,1,0,1.67C171.94,79.44,170.69,80.67,169.38,81.84Z"/><path class="cls-2" d="M173.17,76.51a1.2,1.2,0,0,1,0,1.67c-1.23,1.26-2.48,2.49-3.79,3.66-.5.45-1,.89-1.54,1.3l-.33.24.39.34c.3.24.59.5.88.75s.84.76,1.28,1.11l.54.38a1.18,1.18,0,1,1-1.19,2,11.34,11.34,0,0,1-1.3-1l-.67-.6-1-.84-1-.87L165,85l-1.39.79c-.49.28-1,.55-1.47.86s-.86.58-1.28.9c-.57.46-1.13.94-1.68,1.42s-1.21,1-1.8,1.58a1.18,1.18,0,0,1-1.67-1.67c.71-.64,1.43-1.26,2.14-1.88a30,30,0,0,1,2.75-2.16c1-.65,2-1.19,3-1.77l-.9-.82c-.53-.49-1.07-1-1.57-1.49-.79-.84-1.49-1.77-2.2-2.68a1.12,1.12,0,0,1-.11-.91,1.19,1.19,0,0,1,1.45-.83,1.29,1.29,0,0,1,.52.3l.18.24.23.29a20.06,20.06,0,0,0,1.9,2.22c.44.43.9.84,1.35,1.26l1.26,1.15c.25-.17.49-.34.73-.53,1.05-.83,2-1.76,3-2.68.71-.67,1.39-1.36,2.06-2.06a1.16,1.16,0,0,1,.83-.34A1.24,1.24,0,0,1,173.17,76.51Z"/><g class="cls-9"><path class="cls-2" d="M33.56,129.32A16.74,16.74,0,0,1,32.34,128c-.35-.43-.66-.89-1-1.34s-.8-1.12-1.2-1.68-.61-.88-.91-1.33l-.6-1c-.25-.41-.5-.81-.74-1.22a11.47,11.47,0,0,1-.78-1.57l-.36-.94c-.23-.6-.48-1.19-.69-1.8a18.89,18.89,0,0,1-.54-3.68c-.05-.59-.11-1.18-.15-1.77a11.87,11.87,0,0,1,.1-2.73,10.9,10.9,0,0,1,.4-1.38.61.61,0,0,1,.07-.1c.18-.28.37-.55.56-.83L27.64,105c.4-.58.82-1.13,1.25-1.68.21-.27.39-.56.58-.84l.54-.79c.35-.5.69-1,1.06-1.49.17-.22.34-.44.52-.65h.07c.65,0,1.3,0,1.95,0,.47,0,.94,0,1.41-.07s.87-.08,1.31-.12.74-.07,1.11-.09l1.26,0a10.32,10.32,0,0,1,1.67.06h0a1.46,1.46,0,0,1,0,.22c-.09.38-.22.74-.34,1.11-.06.19-.13.37-.19.56a8.7,8.7,0,0,0-.3,1.08c-.08.35-.15.71-.22,1.06s-.07.51-.1.76c-.07.52-.12,1-.21,1.55l0,.2a1.1,1.1,0,0,0,0,.54.63.63,0,0,0,.09.24l.1.15.2.17.24.13a2.33,2.33,0,0,0,.36.08h.21l.38,0a3,3,0,0,0,.52-.12c.38-.1.73-.25,1.1-.38s.78-.24,1.18-.33.81-.16,1.22-.21l1.07-.11c.6-.06,1.22-.09,1.82-.13a5.77,5.77,0,0,1,.83,0l.19.24c.28.45.51.92.75,1.38.15.29.27.59.4.89s.13.33.19.49l.15.4q.16.51.36,1t.42,1.08c.13.31.27.61.42.91s.33.67.48,1a2.54,2.54,0,0,0,.31.53.9.9,0,0,0,.36.25l.09,0a.61.61,0,0,0,.33,0,1.64,1.64,0,0,0,.56-.2l.25-.14.42-.18.1,0a13.25,13.25,0,0,1,2.52-.41l1.27-.12c.8-.09,1.61-.18,2.42-.25h.1a14,14,0,0,1,.9,2,12.71,12.71,0,0,1,.31,1.49c.06.31.11.62.17.92s.11.52.18.77a7.76,7.76,0,0,0,.3.85c.06.15.12.3.19.45a2.56,2.56,0,0,0,.11.24A1.73,1.73,0,0,0,63,120a1.59,1.59,0,0,0,.37.18,1.38,1.38,0,0,0,.29.08,2.08,2.08,0,0,0,.36.06c.12,0,.25,0,.38,0a4.63,4.63,0,0,0,.65-.1l.54-.16c.31-.09.62-.2.93-.28s.9-.24,1.36-.33a12,12,0,0,1,1.58-.2,9.32,9.32,0,0,1,1.18,0l.1.22c.11.4.17.81.26,1.22s.15.68.24,1,.2.77.31,1.15.17.62.23.93c.13.69.27,1.39.43,2.08,0,.16.09.32.14.47a1,1,0,0,0,.21.3,1.83,1.83,0,0,0,.31.24,2.11,2.11,0,0,0,.74.22,3.67,3.67,0,0,0,.81,0,8.26,8.26,0,0,0,1-.1c.18,0,.36,0,.53-.09.37-.09.74-.18,1.11-.3a7,7,0,0,0,1-.41l.7-.35c.19-.09.38-.16.57-.23l.82-.22.94-.25.64-.16c0,.15,0,.3-.07.45l-.14.71-.12.51-.12.47a15.38,15.38,0,0,1-.61,1.69,21.74,21.74,0,0,1-1.28,2l-1.16,1.71c-.38.56-.76,1.12-1.15,1.67-.54.77-1.08,1.53-1.69,2.24a14.18,14.18,0,0,1-2.58,2.19,25.32,25.32,0,0,1-3.41,1.72c-1,.46-2.13.83-3.21,1.19a9,9,0,0,1-2,.38c-.61,0-1.21.05-1.82.06l-.78.06-.67,0c-.57,0-1.13,0-1.69,0a14.12,14.12,0,0,1-1.59-.21l-1.16-.21-1.11-.24c-.32-.07-.64-.17-1-.26-.64-.17-1.26-.39-1.88-.61l-2-.71-1.09-.38-.28-.12-.7-.3c-.46-.2-.9-.43-1.35-.65l-1.95-1c-.55-.29-1.11-.56-1.66-.86l-1.2-.64c-.29-.16-.58-.35-.87-.52s-.56-.36-.84-.54l-.77-.51-1.29-.9-.74-.52-.59-.45c-.44-.33-.85-.68-1.27-1s-.65-.56-1-.84C34.47,130.19,34,129.76,33.56,129.32Zm63.87,3A9.92,9.92,0,0,0,98.71,126a7.4,7.4,0,0,0-3.36-5.12,14.5,14.5,0,0,0-6.17-2.77,23.22,23.22,0,0,0-5-.12c-.22-3.7-.4-7.44-.83-11.12a16.9,16.9,0,0,0-2.95-8.39c-.39-.52-.77-1.11-1.19-1.6-.14-.16-1.87-1.43-1.89-1.41a12,12,0,0,0,2-3.38,4.18,4.18,0,0,0-.39-3.8,3.14,3.14,0,0,0-1.53-1.1,3.91,3.91,0,0,0-2.75.23,15.42,15.42,0,0,0-4.16,3.31.39.39,0,0,1-.14.08.3.3,0,0,1-.15-.07A16.31,16.31,0,0,0,66,88.53,26.89,26.89,0,0,0,61,87.22a24.55,24.55,0,0,0-5.07,0,43.57,43.57,0,0,0-10.15,2.33l-4.67,1.48a26.72,26.72,0,0,0-4,1.88c-.64.32-1.79,1.24-2.51,1.22s-.94-1.32-.86-2a6.26,6.26,0,0,1,1-2.37A36.29,36.29,0,0,0,38,83.89,9.28,9.28,0,0,0,38.15,77a10.57,10.57,0,0,0-5.41-5.33c-1.83-.75-3.58-1.42-5.6-1.06A4.86,4.86,0,0,0,23.2,74a16.91,16.91,0,0,1,3.18-.24A6.46,6.46,0,0,0,24,77.15c.12-.39,2.08,0,2.36,0a5.66,5.66,0,0,1,3.28,1.07A11.08,11.08,0,0,1,32,80.77a5,5,0,0,1,.76,1.61,4.27,4.27,0,0,1-1.64,4.06A11.3,11.3,0,0,1,27,88.34,16.64,16.64,0,0,0,22.67,90a10.74,10.74,0,0,0-3.21,3.36,12.27,12.27,0,0,0-1.06,2,11.39,11.39,0,0,0,.06,7.89,8,8,0,0,0,2.1,3.46c.73.57,1.45,1.15,2.15,1.76s1.34.87,1.26,1.78a20.49,20.49,0,0,0,1.49,9.39,31.5,31.5,0,0,0,3,5.32A30.84,30.84,0,0,0,32,129.55a58.14,58.14,0,0,0,9.61,7.66,46,46,0,0,0,8.4,4.17,30.91,30.91,0,0,0,8.74,2,34.86,34.86,0,0,0,5.11-.14,15.71,15.71,0,0,0,2.15-.32,19.64,19.64,0,0,0,3.15-1.11,27.17,27.17,0,0,0,4.36-2.15c.51-.33,1-.7,1.47-1.06.67.51,1.22,1.17,1.89,1.67a12.44,12.44,0,0,0,2.33,1.33,13,13,0,0,0,7.4,1.15A11,11,0,0,0,93,139a27.74,27.74,0,0,0,3-4.28C96.51,133.91,97,133.1,97.43,132.31Zm-4.74,5c-.19.24-.39.47-.59.7l-.57.61c-.2.22-.42.42-.63.63s-.38.37-.58.54c-.39.33-.78.66-1.2.95a3.5,3.5,0,0,1-.62.29,8.38,8.38,0,0,1-1.59.26l-.93.1-1,.09c-.41,0-.82.11-1.23.14a3.09,3.09,0,0,1-.43,0,2.63,2.63,0,0,1-.49-.06,12.93,12.93,0,0,1-1.94-.63l-.6-.23-.58-.27c-.58-.32-1.14-.68-1.7-1l-.78-.52c-.27-.18-.55-.35-.81-.56l-.17-.19a3.68,3.68,0,0,1-.21-.45,11.9,11.9,0,0,0,1-1.15l.31-.41a.61.61,0,0,0,.16.16q.88.6,1.8,1.17c.33.19.67.36,1,.52a6.73,6.73,0,0,0,1.24.35c.34.09.67.18,1,.29s.59.24.9.34a9.6,9.6,0,0,0,1.6.4,3.07,3.07,0,0,0,1.21-.11A6.91,6.91,0,0,0,87,139a6.79,6.79,0,0,0,.89-.46c.32-.19.64-.38.94-.6a6.36,6.36,0,0,0,1.51-1.58c.39-.55.76-1.12,1.14-1.68s.8-1.18,1.2-1.77.74-1.1,1.09-1.66a13.73,13.73,0,0,0,.73-1.29,5.35,5.35,0,0,0,.43-1.41c0-.2.06-.4.09-.6s.06-.42.07-.64a5.78,5.78,0,0,0,0-.72c0-.24-.06-.48-.1-.71a4.41,4.41,0,0,0-.39-1.23,5.57,5.57,0,0,0-.37-.57,4.33,4.33,0,0,0-.59-.62L93,123l-.62-.4L91.5,122a7.14,7.14,0,0,0-1.43-.73c-.53-.18-1.06-.33-1.59-.47a10.28,10.28,0,0,0-1.75-.27,14.29,14.29,0,0,0-1.6,0l-1.1,0-.43,0c.06-.25.11-.5.18-.74l.06-.2.08-.07a4.9,4.9,0,0,1,.52-.24,5.91,5.91,0,0,1,1.1-.2l1,0a9.91,9.91,0,0,1,2.11.17c.52.11,1,.26,1.54.41a14.7,14.7,0,0,1,1.92.7,16.76,16.76,0,0,1,1.48.86l.59.37a10.88,10.88,0,0,1,1.1.78,5.27,5.27,0,0,1,.66.82c.22.35.44.72.66,1.08a8.92,8.92,0,0,1,.83,1.7,5.17,5.17,0,0,1,.22,1.12,7,7,0,0,1-.11,1.45,12.15,12.15,0,0,1-.33,1.18q-.24.66-.54,1.29c-.3.58-.59,1.16-.92,1.72S95,134,94.56,134.65s-.81,1.21-1.22,1.81C93.13,136.76,92.91,137,92.69,137.33Zm-7,.77a5.1,5.1,0,0,1-1-.07,15.43,15.43,0,0,1-4.61-1.57A7.06,7.06,0,0,1,77.92,135a4.49,4.49,0,0,0,1.2-1.72c1-2.05,2.69-3.68,3.3-6,.48-1.76.71-3.58,1.28-5.32a.76.76,0,0,1,.28-.45.82.82,0,0,1,.38-.06,19.08,19.08,0,0,1,2.49.25c2.74.45,5.63,1.63,6.52,4.23.67,1.92-.59,3.93-1.43,5.61-1.12,2.23-2.33,4.56-4.45,5.86A4.07,4.07,0,0,1,85.69,138.1Zm-11.8-12.16c-.7-2.51-1.41-5-2.14-7.54a1,1,0,0,0-.35-.62,1.07,1.07,0,0,0-.75,0l-4.68,1c-.53.11-1.5.54-2,.33s-.56-.95-.62-1.41a15.56,15.56,0,0,0-.94-3.62c-.36-.93-.79-2.54-2-2.6a18.4,18.4,0,0,0-2.35.1,25,25,0,0,0-4.63.87,2.35,2.35,0,0,0-.76.42,6.94,6.94,0,0,1-1.18-2.37c-.11-.4-.16-.82-.31-1.21s-.39-.75-.55-1.15a14.14,14.14,0,0,1-.36-1.46,4.84,4.84,0,0,0-1.42-2.36,66,66,0,0,0-6.71,1c-.72.15-2,.83-2-.22a10.05,10.05,0,0,1,.5-1.92c.1-.46,1.22-4.68,1-4.8a5.47,5.47,0,0,0-3.45-.26c-1.89.22-3.83,0-5.67.24a4,4,0,0,1,1.34-1.47l.23-.17a39.86,39.86,0,0,1,5-3.38c3.44-1.89,7.4-2.28,11.18-3.09a3.28,3.28,0,0,1,.88-.12,2.31,2.31,0,0,1,1.52.79c.53.43,1.14.79,1.7,1.17s1.13.76,1.67,1.18c.29.21.58.42.85.65l.79.66.65.61c.24.24.47.48.72.71.62.56,1.24,1.11,1.87,1.65.25.23.51.45.77.67s.56.44.85.66c.51.39,1.05.77,1.59,1.14l3.67,2.5c1.12.76,2.23,1.53,3.35,2.27l.92.59,1,.59a12.48,12.48,0,0,0,1.93.89c.32.13.64.28,1,.43a8.58,8.58,0,0,0,1,.38,9.12,9.12,0,0,0,2.21.63,2.76,2.76,0,0,1,2,.81,5.77,5.77,0,0,1,1.1,2.06,12.93,12.93,0,0,1,.74,3.17,19.83,19.83,0,0,1,0,2c0,1.29-.1,2.58-.26,3.85a8,8,0,0,1-.47,2.94c-.37.66-1.64.93-2.32,1.2C79.42,124.52,74,126.34,73.89,125.94ZM72,103.56a104.89,104.89,0,0,1-9.34-6.33c-.72-.53-1.43-1.07-2.13-1.63-1.38-1.14-2.68-2.38-4-3.54-.67-.56-1.35-1.11-2.06-1.6-.35-.24-1.61-.73-1.42-1.3a.66.66,0,0,1,.34-.34,5.48,5.48,0,0,1,1.38-.56,9.8,9.8,0,0,1,2.81-.1,24.67,24.67,0,0,1,3.21.27A25.75,25.75,0,0,1,66.29,90a12,12,0,0,1,2.38,1c.89.57,1.73,1.21,2.62,1.8l3.42,2.32.71.48.8.59c.43.33.85.67,1.27,1a12.69,12.69,0,0,1,1.28,1.26,18.39,18.39,0,0,1,1.68,2.16,8.12,8.12,0,0,1,.62,1.21,11.18,11.18,0,0,1,.79,5.85C78.36,107.46,75,105.31,72,103.56Zm2.83-9.92-2.51-1.7-.49-.32c.1-.19.21-.37.32-.55a4.71,4.71,0,0,1,.33-.42c.17-.18.34-.35.52-.52s.4-.35.6-.52.36-.29.55-.43.37-.28.57-.4L75,88.6a4.19,4.19,0,0,1,.71-.33l.36-.08h.09a3.59,3.59,0,0,1,.51.2c.24.12.48.26.71.4a6.53,6.53,0,0,1,.91.65,3.76,3.76,0,0,1,.34.35l0,.12,0,.16a3.13,3.13,0,0,1,0,.43,3.27,3.27,0,0,1-.27.76,34.51,34.51,0,0,1-2,3.1.63.63,0,0,0-.1.29l-.5-.34Zm-49.55,12.5a7.39,7.39,0,0,0-.89,1.47l-.09.25a7.61,7.61,0,0,1-2.06-1.32,9.27,9.27,0,0,1-2.15-2.67,10.11,10.11,0,0,1-1-6.84,13.16,13.16,0,0,1,1.55-3.2A7.08,7.08,0,0,1,23.38,91,25.76,25.76,0,0,1,28,89.07a12.24,12.24,0,0,0,4.32-2.41,5,5,0,0,0,.86-6.53,8.81,8.81,0,0,0-3.71-3.57A5.83,5.83,0,0,0,28,76.14L26.64,76a4,4,0,0,0-.77,0,5.32,5.32,0,0,1,.36-.47,8.2,8.2,0,0,1,2.36-1.91.15.15,0,0,0,.11-.11s-.06-.09-.11-.12c-1-.47-2.16-.36-3.18-.73.12-.66,1.44-.94,2-1a5.6,5.6,0,0,1,1.53,0c4.32.58,9.1,4.42,8.75,9.12a9.53,9.53,0,0,1-2.25,5.1,15.31,15.31,0,0,0-2.63,5.56,7.25,7.25,0,0,0-.25,2.36,2.43,2.43,0,0,0,.88,1.59,60.8,60.8,0,0,1-3.91,5.16C28.07,102.36,26.65,104.24,25.29,106.14Z"/><path class="cls-4" d="M94.56,134.65c-.4.61-.81,1.21-1.22,1.81-.21.3-.43.58-.65.87s-.39.47-.59.7l-.57.61c-.2.22-.42.42-.63.63s-.38.37-.58.54c-.39.33-.78.66-1.2.95a3.5,3.5,0,0,1-.62.29,8.38,8.38,0,0,1-1.59.26l-.93.1-1,.09c-.41,0-.82.11-1.23.14a3.09,3.09,0,0,1-.43,0,2.63,2.63,0,0,1-.49-.06,12.93,12.93,0,0,1-1.94-.63l-.6-.23-.58-.27c-.58-.32-1.14-.68-1.7-1l-.78-.52c-.27-.18-.55-.35-.81-.56l-.17-.19a3.68,3.68,0,0,1-.21-.45,11.9,11.9,0,0,0,1-1.15l.31-.41a.61.61,0,0,0,.16.16q.88.6,1.8,1.17c.33.19.67.36,1,.52a6.73,6.73,0,0,0,1.24.35c.34.09.67.18,1,.29s.59.24.9.34a9.6,9.6,0,0,0,1.6.4,3.07,3.07,0,0,0,1.21-.11A6.91,6.91,0,0,0,87,139a6.79,6.79,0,0,0,.89-.46c.32-.19.64-.38.94-.6a6.36,6.36,0,0,0,1.51-1.58c.39-.55.76-1.12,1.14-1.68s.8-1.18,1.2-1.77.74-1.1,1.09-1.66a13.73,13.73,0,0,0,.73-1.29,5.35,5.35,0,0,0,.43-1.41c0-.2.06-.4.09-.6s.06-.42.07-.64a5.78,5.78,0,0,0,0-.72c0-.24-.06-.48-.1-.71a4.41,4.41,0,0,0-.39-1.23,5.57,5.57,0,0,0-.37-.57,4.33,4.33,0,0,0-.59-.62L93,123l-.62-.4L91.5,122a7.14,7.14,0,0,0-1.43-.73c-.53-.18-1.06-.33-1.59-.47a10.28,10.28,0,0,0-1.75-.27,14.29,14.29,0,0,0-1.6,0l-1.1,0-.43,0c.06-.25.11-.5.18-.74l.06-.2.08-.07a4.9,4.9,0,0,1,.52-.24,5.91,5.91,0,0,1,1.1-.2l1,0a9.91,9.91,0,0,1,2.11.17c.52.11,1,.26,1.54.41a14.7,14.7,0,0,1,1.92.7,16.76,16.76,0,0,1,1.48.86l.59.37a10.88,10.88,0,0,1,1.1.78,5.27,5.27,0,0,1,.66.82c.22.35.44.72.66,1.08a8.92,8.92,0,0,1,.83,1.7,5.17,5.17,0,0,1,.22,1.12,7,7,0,0,1-.11,1.45,12.15,12.15,0,0,1-.33,1.18q-.24.66-.54,1.29c-.3.58-.59,1.16-.92,1.72S95,134,94.56,134.65Z"/><path class="cls-10" d="M80.69,128.92a21.74,21.74,0,0,1-1.28,2l-1.16,1.71c-.38.56-.76,1.12-1.15,1.67-.54.77-1.08,1.53-1.69,2.24a14.18,14.18,0,0,1-2.58,2.19,25.32,25.32,0,0,1-3.41,1.72c-1,.46-2.13.83-3.21,1.19a9,9,0,0,1-2,.38c-.61,0-1.21.05-1.82.06l-.78.06-.67,0c-.57,0-1.13,0-1.69,0a14.12,14.12,0,0,1-1.59-.21l-1.16-.21-1.11-.24c-.32-.07-.64-.17-1-.26-.64-.17-1.26-.39-1.88-.61l-2-.71-1.09-.38-.28-.12-.7-.3c-.46-.2-.9-.43-1.35-.65l-1.95-1c-.55-.29-1.11-.56-1.66-.86l-1.2-.64c-.29-.16-.58-.35-.87-.52s-.56-.36-.84-.54l-.77-.51-1.29-.9-.74-.52-.59-.45c-.44-.33-.85-.68-1.27-1s-.65-.56-1-.84c-.47-.43-.93-.86-1.38-1.3A16.74,16.74,0,0,1,32.34,128c-.35-.43-.66-.89-1-1.34s-.8-1.12-1.2-1.68-.61-.88-.91-1.33l-.6-1c-.25-.41-.5-.81-.74-1.22a11.47,11.47,0,0,1-.78-1.57l-.36-.94c-.23-.6-.48-1.19-.69-1.8a18.89,18.89,0,0,1-.54-3.68c-.05-.59-.11-1.18-.15-1.77a11.87,11.87,0,0,1,.1-2.73,10.9,10.9,0,0,1,.4-1.38.61.61,0,0,1,.07-.1c.18-.28.37-.55.56-.83L27.64,105c.4-.58.82-1.13,1.25-1.68.21-.27.39-.56.58-.84l.54-.79c.35-.5.69-1,1.06-1.49.17-.22.34-.44.52-.65h.07c.65,0,1.3,0,1.95,0,.47,0,.94,0,1.41-.07s.87-.08,1.31-.12.74-.07,1.11-.09l1.26,0a10.32,10.32,0,0,1,1.67.06h0a1.46,1.46,0,0,1,0,.22c-.09.38-.22.74-.34,1.11-.06.19-.13.37-.19.56a8.7,8.7,0,0,0-.3,1.08c-.08.35-.15.71-.22,1.06s-.07.51-.1.76c-.07.52-.12,1-.21,1.55l0,.2a1.1,1.1,0,0,0,0,.54.63.63,0,0,0,.09.24l.1.15.2.17.24.13a2.33,2.33,0,0,0,.36.08h.21l.38,0a3,3,0,0,0,.52-.12c.38-.1.73-.25,1.1-.38s.78-.24,1.18-.33.81-.16,1.22-.21l1.07-.11c.6-.06,1.22-.09,1.82-.13a5.77,5.77,0,0,1,.83,0l.19.24c.28.45.51.92.75,1.38.15.29.27.59.4.89s.13.33.19.49l.15.4q.16.51.36,1t.42,1.08c.13.31.27.61.42.91s.33.67.48,1a2.54,2.54,0,0,0,.31.53.9.9,0,0,0,.36.25l.09,0a.61.61,0,0,0,.33,0,1.64,1.64,0,0,0,.56-.2l.25-.14.42-.18.1,0a13.25,13.25,0,0,1,2.52-.41l1.27-.12c.8-.09,1.61-.18,2.42-.25h.1a14,14,0,0,1,.9,2,12.71,12.71,0,0,1,.31,1.49c.06.31.11.62.17.92s.11.52.18.77a7.76,7.76,0,0,0,.3.85c.06.15.12.3.19.45a2.56,2.56,0,0,0,.11.24A1.73,1.73,0,0,0,63,120a1.59,1.59,0,0,0,.37.18,1.38,1.38,0,0,0,.29.08,2.08,2.08,0,0,0,.36.06c.12,0,.25,0,.38,0a4.63,4.63,0,0,0,.65-.1l.54-.16c.31-.09.62-.2.93-.28s.9-.24,1.36-.33a12,12,0,0,1,1.58-.2,9.32,9.32,0,0,1,1.18,0l.1.22c.11.4.17.81.26,1.22s.15.68.24,1,.2.77.31,1.15.17.62.23.93c.13.69.27,1.39.43,2.08,0,.16.09.32.14.47a1,1,0,0,0,.21.3,1.83,1.83,0,0,0,.31.24,2.11,2.11,0,0,0,.74.22,3.67,3.67,0,0,0,.81,0,8.26,8.26,0,0,0,1-.1c.18,0,.36,0,.53-.09.37-.09.74-.18,1.11-.3a7,7,0,0,0,1-.41l.7-.35c.19-.09.38-.16.57-.23l.82-.22.94-.25.64-.16c0,.15,0,.3-.07.45l-.14.71-.12.51-.12.47A15.38,15.38,0,0,1,80.69,128.92Z"/><path class="cls-5" d="M82.24,123.11c-.37.66-1.64.93-2.32,1.2-.5.21-5.92,2-6,1.63-.7-2.51-1.41-5-2.14-7.54a1,1,0,0,0-.35-.62,1.07,1.07,0,0,0-.75,0l-4.68,1c-.53.11-1.5.54-2,.33s-.56-.95-.62-1.41a15.56,15.56,0,0,0-.94-3.62c-.36-.93-.79-2.54-2-2.6a18.4,18.4,0,0,0-2.35.1,25,25,0,0,0-4.63.87,2.35,2.35,0,0,0-.76.42,6.94,6.94,0,0,1-1.18-2.37c-.11-.4-.16-.82-.31-1.21s-.39-.75-.55-1.15a14.14,14.14,0,0,1-.36-1.46,4.84,4.84,0,0,0-1.42-2.36,66,66,0,0,0-6.71,1c-.72.15-2,.83-2-.22a10.05,10.05,0,0,1,.5-1.92c.1-.46,1.22-4.68,1-4.8a5.47,5.47,0,0,0-3.45-.26c-1.89.22-3.83,0-5.67.24a4,4,0,0,1,1.34-1.47l.23-.17a39.86,39.86,0,0,1,5-3.38c3.44-1.89,7.4-2.28,11.18-3.09a3.28,3.28,0,0,1,.88-.12,2.31,2.31,0,0,1,1.52.79c.53.43,1.14.79,1.7,1.17s1.13.76,1.67,1.18c.29.21.58.42.85.65l.79.66.65.61c.24.24.47.48.72.71.62.56,1.24,1.11,1.87,1.65.25.23.51.45.77.67s.56.44.85.66c.51.39,1.05.77,1.59,1.14l3.67,2.5c1.12.76,2.23,1.53,3.35,2.27l.92.59,1,.59a12.48,12.48,0,0,0,1.93.89c.32.13.64.28,1,.43a8.58,8.58,0,0,0,1,.38,9.12,9.12,0,0,0,2.21.63,2.76,2.76,0,0,1,2,.81,5.77,5.77,0,0,1,1.1,2.06,12.93,12.93,0,0,1,.74,3.17,19.83,19.83,0,0,1,0,2c0,1.29-.1,2.58-.26,3.85A8,8,0,0,1,82.24,123.11Z"/><path class="cls-4" d="M81.07,101.84a11.18,11.18,0,0,1,.79,5.85c-3.5-.23-6.9-2.38-9.85-4.13a104.89,104.89,0,0,1-9.34-6.33c-.72-.53-1.43-1.07-2.13-1.63-1.38-1.14-2.68-2.38-4-3.54-.67-.56-1.35-1.11-2.06-1.6-.35-.24-1.61-.73-1.42-1.3a.66.66,0,0,1,.34-.34,5.48,5.48,0,0,1,1.38-.56,9.8,9.8,0,0,1,2.81-.1,24.67,24.67,0,0,1,3.21.27A25.75,25.75,0,0,1,66.29,90a12,12,0,0,1,2.38,1c.89.57,1.73,1.21,2.62,1.8l3.42,2.32.71.48.8.59c.43.33.85.67,1.27,1a12.69,12.69,0,0,1,1.28,1.26,18.39,18.39,0,0,1,1.68,2.16A8.12,8.12,0,0,1,81.07,101.84Z"/><path class="cls-4" d="M76.34,94.66l-.5-.34-1-.68-2.51-1.7-.49-.32c.1-.19.21-.37.32-.55a4.71,4.71,0,0,1,.33-.42c.17-.18.34-.35.52-.52s.4-.35.6-.52.36-.29.55-.43.37-.28.57-.4L75,88.6a4.19,4.19,0,0,1,.71-.33l.36-.08h.09a3.59,3.59,0,0,1,.51.2c.24.12.48.26.71.4a6.53,6.53,0,0,1,.91.65,3.76,3.76,0,0,1,.34.35l0,.12,0,.16a3.13,3.13,0,0,1,0,.43,3.27,3.27,0,0,1-.27.76,34.51,34.51,0,0,1-2,3.1A.63.63,0,0,0,76.34,94.66Z"/><path class="cls-4" d="M33.44,95.37a60.8,60.8,0,0,1-3.91,5.16c-1.46,1.83-2.88,3.71-4.24,5.61a7.39,7.39,0,0,0-.89,1.47l-.09.25a7.61,7.61,0,0,1-2.06-1.32,9.27,9.27,0,0,1-2.15-2.67,10.11,10.11,0,0,1-1-6.84,13.16,13.16,0,0,1,1.55-3.2A7.08,7.08,0,0,1,23.38,91,25.76,25.76,0,0,1,28,89.07a12.24,12.24,0,0,0,4.32-2.41,5,5,0,0,0,.86-6.53,8.81,8.81,0,0,0-3.71-3.57A5.83,5.83,0,0,0,28,76.14L26.64,76a4,4,0,0,0-.77,0,5.32,5.32,0,0,1,.36-.47,8.2,8.2,0,0,1,2.36-1.91.15.15,0,0,0,.11-.11s-.06-.09-.11-.12c-1-.47-2.16-.36-3.18-.73.12-.66,1.44-.94,2-1a5.6,5.6,0,0,1,1.53,0c4.32.58,9.1,4.42,8.75,9.12a9.53,9.53,0,0,1-2.25,5.1,15.31,15.31,0,0,0-2.63,5.56,7.25,7.25,0,0,0-.25,2.36A2.43,2.43,0,0,0,33.44,95.37Z"/></g><g class="cls-11"><path class="cls-2" d="M115.86,37.64a7.66,7.66,0,0,1-.84.56c-.28.16-.56.29-.85.43s-.7.34-1,.52l-.83.38-.61.25-.75.3a8,8,0,0,1-1,.29l-.57.12c-.35.07-.71.16-1.07.22a10.63,10.63,0,0,1-2.11,0l-1-.08a6.6,6.6,0,0,1-1.53-.31,6.13,6.13,0,0,1-.73-.35l-.06,0c-.14-.12-.27-.26-.41-.39s-.55-.51-.81-.78-.56-.56-.83-.85-.28-.27-.42-.4l-.39-.38c-.25-.24-.5-.48-.74-.74L99,36v0c0-.36.12-.73.18-1.09s.06-.53.09-.8,0-.5,0-.75,0-.42.06-.63,0-.48.08-.71a7,7,0,0,1,.19-.93h0l.11,0c.21.09.4.2.6.3l.29.16c.19.1.39.19.58.27l.58.21.41.13.86.26.11,0a.61.61,0,0,0,.3.05.32.32,0,0,0,.14,0l.09,0,.12-.09.09-.13A.77.77,0,0,0,104,32l0-.12c0-.08,0-.15,0-.22a1.51,1.51,0,0,0,0-.3c0-.22-.08-.44-.11-.65a5.35,5.35,0,0,1-.08-.7,4.09,4.09,0,0,1,0-.7l0-.61c0-.35.06-.69.09-1,0-.15,0-.31.07-.47l.16-.08c.28-.11.56-.2.85-.29a4.58,4.58,0,0,1,.53-.14,2.65,2.65,0,0,1,.3-.06l.23-.05.61-.11.64-.14a4.94,4.94,0,0,0,.55-.15l.61-.18a1.18,1.18,0,0,0,.33-.12.49.49,0,0,0,.17-.18l0,0a.58.58,0,0,0,0-.19.75.75,0,0,0-.06-.33.88.88,0,0,1,0-.15,2.5,2.5,0,0,1-.07-.26s0,0,0-.06a7,7,0,0,1,0-1.45c0-.24,0-.48,0-.72,0-.46,0-.92.08-1.38a.13.13,0,0,0,0-.06,8.06,8.06,0,0,1,1.19-.33,8.43,8.43,0,0,1,.87,0h.53l.45,0c.17,0,.34-.06.5-.09l.27-.07.15,0a1,1,0,0,0,.38-.23,2.14,2.14,0,0,0,.13-.19c0-.05,0-.11.08-.16l.06-.2a.76.76,0,0,0,0-.21,2.41,2.41,0,0,0,0-.38c0-.1,0-.21,0-.32s0-.36-.07-.54,0-.53-.06-.8a5.43,5.43,0,0,1,0-.9,4.81,4.81,0,0,1,.13-.66l.14,0c.23,0,.47,0,.7,0l.6,0,.67-.07.54,0c.41,0,.81,0,1.21-.05a2.4,2.4,0,0,0,.28,0,1.11,1.11,0,0,0,.19-.09,1.14,1.14,0,0,0,.16-.15,1.05,1.05,0,0,0,.19-.4,1.82,1.82,0,0,0,.1-.45,3.69,3.69,0,0,0,0-.58c0-.1,0-.2,0-.3s0-.43-.06-.65a3.9,3.9,0,0,0-.14-.59c0-.14-.09-.28-.13-.42s0-.23-.08-.34,0-.32,0-.48l-.06-.55,0-.38.25.08.38.14.28.12.25.11a9.84,9.84,0,0,1,.9.5,12,12,0,0,1,1,.9l.85.81.84.8c.38.38.76.75,1.1,1.16a8.4,8.4,0,0,1,1,1.65,15.05,15.05,0,0,1,.65,2.07c.16.63.27,1.28.37,1.92a5.51,5.51,0,0,1,0,1.15c0,.34-.09.69-.13,1,0,.15,0,.29,0,.44l0,.38c0,.32-.09.64-.16.95a8,8,0,0,1-.26.87c-.08.21-.16.42-.23.64l-.24.59c-.07.18-.15.35-.23.53-.16.34-.34.67-.52,1l-.59,1.08c-.1.2-.21.39-.31.58l-.1.14-.23.37c-.15.24-.32.47-.49.69l-.77,1c-.21.28-.42.57-.64.85l-.47.61a5.07,5.07,0,0,1-.37.44,5.14,5.14,0,0,1-.38.42l-.36.39-.62.64-.36.37-.31.29-.7.62c-.18.16-.37.31-.56.46Zm7.6-35.59A5.66,5.66,0,0,0,120,.75a4.17,4.17,0,0,0-3.18,1.41,8.19,8.19,0,0,0-2.13,3.21,13.34,13.34,0,0,0-.53,2.79c-2.1-.21-4.21-.46-6.32-.56a9.58,9.58,0,0,0-5,.88c-.33.17-.7.33-1,.52a12.77,12.77,0,0,0-1,.93,6.83,6.83,0,0,0-1.71-1.46A2.38,2.38,0,0,0,97,8.34a1.85,1.85,0,0,0-.76.76,2.24,2.24,0,0,0-.12,1.57,8.92,8.92,0,0,0,1.47,2.64.11.11,0,0,1,0,.08s0,.06,0,.08A9.31,9.31,0,0,0,96,15.64a16.06,16.06,0,0,0-1.2,2.72,14.35,14.35,0,0,0-.45,2.85,24.53,24.53,0,0,0,.36,5.92c.14.92.27,1.84.4,2.76a15,15,0,0,0,.69,2.41c.12.38.53,1.12.45,1.52s-.83.4-1.18.3a3.71,3.71,0,0,1-1.23-.79,21,21,0,0,0-3-2.4,5.29,5.29,0,0,0-3.87-.71,6,6,0,0,0-3.49,2.54,5.66,5.66,0,0,0-1.12,3.05,2.77,2.77,0,0,0,1.58,2.53,9,9,0,0,1,.16-1.8,3.64,3.64,0,0,0,1.66,1.61c-.21-.1.17-1.17.21-1.32a3.25,3.25,0,0,1,.9-1.74A6.63,6.63,0,0,1,88.46,34a2.83,2.83,0,0,1,1-.28A2.45,2.45,0,0,1,91.56,35a6.34,6.34,0,0,1,.68,2.51,9.62,9.62,0,0,0,.51,2.56,6.1,6.1,0,0,0,1.59,2.11,6.25,6.25,0,0,0,1,.78,6.51,6.51,0,0,0,4.44.7,4.44,4.44,0,0,0,2.13-.86c.39-.36.79-.71,1.19-1.05s.62-.67,1.12-.54a11.64,11.64,0,0,0,5.41,0,17.51,17.51,0,0,0,3.27-1.18,18.12,18.12,0,0,0,2.95-1.57A33,33,0,0,0,121,33.84a26,26,0,0,0,3.12-4.33,17.57,17.57,0,0,0,1.93-4.73,19.75,19.75,0,0,0,.39-2.88,8.42,8.42,0,0,0,0-1.23,10.88,10.88,0,0,0-.33-1.88,15.79,15.79,0,0,0-.8-2.64c-.14-.32-.3-.62-.46-.93.35-.32.77-.57,1.11-.9a7.36,7.36,0,0,0,1-1.19,7.36,7.36,0,0,0,1.33-4.05,6.25,6.25,0,0,0-1.51-3.92,16.18,16.18,0,0,0-2.12-2.1Zm2.38,3.13.34.39c.09.13.19.26.29.38s.19.28.29.41.17.25.25.38a8.09,8.09,0,0,1,.42.76,1.92,1.92,0,0,1,.11.37,4.71,4.71,0,0,1,0,.92l0,.54c0,.17,0,.35,0,.54s0,.47,0,.7c0,.08,0,.16,0,.24a1.73,1.73,0,0,1-.08.27,9.14,9.14,0,0,1-.54,1,3.37,3.37,0,0,1-.19.32l-.2.3c-.23.3-.49.58-.74.86l-.37.38c-.13.14-.25.28-.39.41l-.12.07a1.38,1.38,0,0,1-.27.08,5.81,5.81,0,0,0-.56-.65l-.2-.21a.39.39,0,0,0,.1-.08c.28-.3.56-.59.83-.9s.26-.35.39-.53a4,4,0,0,0,.31-.66c.08-.18.16-.36.25-.54s.19-.31.27-.47a4.69,4.69,0,0,0,.38-.86,1.79,1.79,0,0,0,0-.69c0-.14-.06-.28-.09-.41s-.11-.36-.18-.54a5.06,5.06,0,0,0-.25-.58,4.39,4.39,0,0,0-.32-.51,4,4,0,0,0-.43-.49c-.27-.27-.55-.53-.83-.79l-.89-.84L122.5,4c-.21-.19-.43-.36-.66-.53a2.91,2.91,0,0,0-.75-.37L120.76,3a3.58,3.58,0,0,0-.35-.09,2.7,2.7,0,0,0-.41-.05h-.41a2.55,2.55,0,0,0-.72.1,2.83,2.83,0,0,0-.36.16,2.16,2.16,0,0,0-.4.27l-.31.3c-.1.1-.19.21-.28.31s-.27.29-.4.44a3.9,3.9,0,0,0-.54.74c-.16.27-.29.56-.42.84a6.32,6.32,0,0,0-.31,1,6.73,6.73,0,0,0-.13.9c0,.21,0,.42-.07.62l0,.25-.4-.17-.1-.05,0-.06a1.58,1.58,0,0,1-.09-.31,2.73,2.73,0,0,1,0-.64c0-.18.05-.36.07-.54a5.14,5.14,0,0,1,.29-1.17c.11-.28.24-.56.37-.83a7.7,7.7,0,0,1,.57-1c.19-.26.4-.51.62-.76.09-.09.17-.19.26-.29s.35-.38.54-.55a2.65,2.65,0,0,1,.52-.29l.67-.27a4.7,4.7,0,0,1,1-.31,2.83,2.83,0,0,1,.65,0,3.69,3.69,0,0,1,.81.2A5.89,5.89,0,0,1,122,2c.23.13.45.27.67.42s.6.44.88.68l.94.82.9.86C125.56,4.88,125.7,5,125.84,5.18Zm-.22,4a2.63,2.63,0,0,1-.13.57,8.58,8.58,0,0,1-1.31,2.44,3.94,3.94,0,0,1-1,1.07,2.7,2.7,0,0,0-.85-.83c-1.06-.76-1.82-1.85-3-2.41-1-.43-2-.73-2.87-1.21a.45.45,0,0,1-.23-.2.42.42,0,0,1,0-.22A10,10,0,0,1,116.55,7c.51-1.5,1.44-3,3-3.27,1.14-.2,2.16.69,3,1.32a7.64,7.64,0,0,1,2.88,3A2.21,2.21,0,0,1,125.62,9.18Zm-7.92,5.5-4.43.5a.56.56,0,0,0-.38.15.64.64,0,0,0-.09.41c0,.91.1,1.82.14,2.73,0,.3.16.89,0,1.15s-.58.23-.85.22A9.45,9.45,0,0,0,110,20c-.56.12-1.5.21-1.64.88a10.05,10.05,0,0,0-.16,1.33,13.33,13.33,0,0,0,.06,2.68,1.2,1.2,0,0,0,.16.46,3.79,3.79,0,0,1-1.44.45c-.23,0-.47,0-.71.06s-.46.15-.69.2a8.12,8.12,0,0,1-.85.07,2.76,2.76,0,0,0-1.46.58,35.35,35.35,0,0,0-.09,3.85c0,.42.28,1.2-.31,1.11a5.9,5.9,0,0,1-1-.46,18.86,18.86,0,0,0-2.61-1,3.16,3.16,0,0,0-.46,1.91c0,1.08-.37,2.15-.39,3.21a2.28,2.28,0,0,1-.7-.89l-.08-.15a23.75,23.75,0,0,1-1.43-3.12c-.74-2.1-.59-4.36-.7-6.56a2.18,2.18,0,0,1,0-.51c.08-.38.32-.54.59-.78a10.71,10.71,0,0,0,.81-.84c.27-.28.53-.57.82-.83s.29-.29.44-.42l.45-.38.4-.31.46-.34c.38-.29.74-.59,1.11-.89L101,19c.16-.13.3-.27.45-.41s.53-.52.79-.79c.59-.6,1.17-1.22,1.75-1.83s1.06-1.11,1.58-1.67c.14-.15.28-.3.41-.46s.29-.33.42-.5a6.84,6.84,0,0,0,.69-1c.1-.17.21-.33.32-.49a4.07,4.07,0,0,0,.31-.53,5.31,5.31,0,0,0,.56-1.18,1.5,1.5,0,0,1,.64-1,3.1,3.1,0,0,1,1.26-.43A7.14,7.14,0,0,1,112,8.5c.39,0,.77.12,1.15.19.72.15,1.44.3,2.14.5a4.94,4.94,0,0,1,1.61.54c.33.27.36,1,.46,1.42S117.94,14.66,117.7,14.68Zm-12.74-1a59,59,0,0,1-4.42,4.66q-.54.54-1.11,1.05c-.77.67-1.59,1.28-2.36,1.94a13,13,0,0,0-1.09,1c-.17.17-.56.83-.87.68a.41.41,0,0,1-.15-.23,3,3,0,0,1-.19-.82,5.64,5.64,0,0,1,.2-1.59,16,16,0,0,1,.45-1.78,15.38,15.38,0,0,1,1.37-3,6.53,6.53,0,0,1,.81-1.23c.4-.45.84-.86,1.25-1.3l1.62-1.71.34-.36.4-.39.69-.62a7,7,0,0,1,.83-.6,9.06,9.06,0,0,1,1.37-.74,3.9,3.9,0,0,1,.73-.24,6.28,6.28,0,0,1,3.36.1C107.74,10.46,106.21,12.17,105,13.66Zm-5.31-2.5-1.18,1.25-.23.24a3.11,3.11,0,0,1-.28-.23,2.23,2.23,0,0,1-.21-.22l-.24-.34-.24-.38-.19-.35c-.06-.12-.12-.24-.17-.36s0-.12-.07-.17a2.3,2.3,0,0,1-.12-.43,1.48,1.48,0,0,1,0-.21s0,0,0-.05a1.48,1.48,0,0,1,.16-.27l.29-.36a3.92,3.92,0,0,1,.45-.46l.23-.15.07,0H98a1.05,1.05,0,0,1,.24.06,2.56,2.56,0,0,1,.4.22,20.76,20.76,0,0,1,1.56,1.4.37.37,0,0,0,.15.08l-.23.25Zm2.44,29a4,4,0,0,0,.73.63l.14.08a4.55,4.55,0,0,1-.93,1,5.12,5.12,0,0,1-1.7,1,5.74,5.74,0,0,1-3.94-.07,7.66,7.66,0,0,1-1.65-1.16,4.13,4.13,0,0,1-1.34-1.8,14.47,14.47,0,0,1-.65-2.75,7,7,0,0,0-1-2.66,2.82,2.82,0,0,0-3.59-1.08,4.92,4.92,0,0,0-2.34,1.75,3,3,0,0,0-.37.79c-.08.24-.16.48-.23.73a2,2,0,0,0-.07.43L85,36.78a4.7,4.7,0,0,1-.85-1.51s0-.06,0-.07-.06,0-.08,0c-.37.53-.4,1.18-.71,1.72-.36-.13-.39-.89-.38-1.22a3.18,3.18,0,0,1,.16-.86c.72-2.37,3.33-4.7,5.93-4.06a5.38,5.38,0,0,1,2.66,1.73,8.56,8.56,0,0,0,2.87,2,4.06,4.06,0,0,0,1.31.36,1.36,1.36,0,0,0,1-.34,31.93,31.93,0,0,1,2.53,2.67C100.22,38.23,101.14,39.2,102.09,40.14Z"/><path class="cls-4" d="M124.51,3.88l.9.86c.15.14.29.29.43.44l.34.39c.09.13.19.26.29.38s.19.28.29.41.17.25.25.38a8.09,8.09,0,0,1,.42.76,1.92,1.92,0,0,1,.11.37,4.71,4.71,0,0,1,0,.92l0,.54c0,.17,0,.35,0,.54s0,.47,0,.7c0,.08,0,.16,0,.24a1.73,1.73,0,0,1-.08.27,9.14,9.14,0,0,1-.54,1,3.37,3.37,0,0,1-.19.32l-.2.3c-.23.3-.49.58-.74.86l-.37.38c-.13.14-.25.28-.39.41l-.12.07a1.38,1.38,0,0,1-.27.08,5.81,5.81,0,0,0-.56-.65l-.2-.21a.39.39,0,0,0,.1-.08c.28-.3.56-.59.83-.9s.26-.35.39-.53a4,4,0,0,0,.31-.66c.08-.18.16-.36.25-.54s.19-.31.27-.47a4.69,4.69,0,0,0,.38-.86,1.79,1.79,0,0,0,0-.69c0-.14-.06-.28-.09-.41s-.11-.36-.18-.54a5.06,5.06,0,0,0-.25-.58,4.39,4.39,0,0,0-.32-.51,4,4,0,0,0-.43-.49c-.27-.27-.55-.53-.83-.79l-.89-.84L122.5,4c-.21-.19-.43-.36-.66-.53a2.91,2.91,0,0,0-.75-.37L120.76,3a3.58,3.58,0,0,0-.35-.09,2.7,2.7,0,0,0-.41-.05h-.41a2.55,2.55,0,0,0-.72.1,2.83,2.83,0,0,0-.36.16,2.16,2.16,0,0,0-.4.27l-.31.3c-.1.1-.19.21-.28.31s-.27.29-.4.44a3.9,3.9,0,0,0-.54.74c-.16.27-.29.56-.42.84a6.32,6.32,0,0,0-.31,1,6.73,6.73,0,0,0-.13.9c0,.21,0,.42-.07.62l0,.25-.4-.17-.1-.05,0-.06a1.58,1.58,0,0,1-.09-.31,2.73,2.73,0,0,1,0-.64c0-.18.05-.36.07-.54a5.14,5.14,0,0,1,.29-1.17c.11-.28.24-.56.37-.83a7.7,7.7,0,0,1,.57-1c.19-.26.4-.51.62-.76.09-.09.17-.19.26-.29s.35-.38.54-.55a2.65,2.65,0,0,1,.52-.29l.67-.27a4.7,4.7,0,0,1,1-.31,2.83,2.83,0,0,1,.65,0,3.69,3.69,0,0,1,.81.2A5.89,5.89,0,0,1,122,2c.23.13.45.27.67.42s.6.44.88.68Z"/><path class="cls-10" d="M120,11.14a12,12,0,0,1,1,.9l.85.81.84.8c.38.38.76.75,1.1,1.16a8.4,8.4,0,0,1,1,1.65,15.05,15.05,0,0,1,.65,2.07c.16.63.27,1.28.37,1.92a5.51,5.51,0,0,1,0,1.15c0,.34-.09.69-.13,1,0,.15,0,.29,0,.44l0,.38c0,.32-.09.64-.16.95a8,8,0,0,1-.26.87c-.08.21-.16.42-.23.64l-.24.59c-.07.18-.15.35-.23.53-.16.34-.34.67-.52,1l-.59,1.08c-.1.2-.21.39-.31.58l-.1.14-.23.37c-.15.24-.32.47-.49.69l-.77,1c-.21.28-.42.57-.64.85l-.47.61a5.07,5.07,0,0,1-.37.44,5.14,5.14,0,0,1-.38.42l-.36.39-.62.64-.36.37-.31.29-.7.62c-.18.16-.37.31-.56.46l-.86.65a7.66,7.66,0,0,1-.84.56c-.28.16-.56.29-.85.43s-.7.34-1,.52l-.83.38-.61.25-.75.3a8,8,0,0,1-1,.29l-.57.12c-.35.07-.71.16-1.07.22a10.63,10.63,0,0,1-2.11,0l-1-.08a6.6,6.6,0,0,1-1.53-.31,6.13,6.13,0,0,1-.73-.35l-.06,0c-.14-.12-.27-.26-.41-.39s-.55-.51-.81-.78-.56-.56-.83-.85-.28-.27-.42-.4l-.39-.38c-.25-.24-.5-.48-.74-.74L99,36v0c0-.36.12-.73.18-1.09s.06-.53.09-.8,0-.5,0-.75,0-.42.06-.63,0-.48.08-.71a7,7,0,0,1,.19-.93h0l.11,0c.21.09.4.2.6.3l.29.16c.19.1.39.19.58.27l.58.21.41.13.86.26.11,0a.61.61,0,0,0,.3.05.32.32,0,0,0,.14,0l.09,0,.12-.09.09-.13A.77.77,0,0,0,104,32l0-.12c0-.08,0-.15,0-.22a1.51,1.51,0,0,0,0-.3c0-.22-.08-.44-.11-.65a5.35,5.35,0,0,1-.08-.7,4.09,4.09,0,0,1,0-.7l0-.61c0-.35.06-.69.09-1,0-.15,0-.31.07-.47l.16-.08c.28-.11.56-.2.85-.29a4.58,4.58,0,0,1,.53-.14,2.65,2.65,0,0,1,.3-.06l.23-.05.61-.11.64-.14a4.94,4.94,0,0,0,.55-.15l.61-.18a1.18,1.18,0,0,0,.33-.12.49.49,0,0,0,.17-.18l0,0a.58.58,0,0,0,0-.19.75.75,0,0,0-.06-.33.88.88,0,0,1,0-.15,2.5,2.5,0,0,1-.07-.26s0,0,0-.06a7,7,0,0,1,0-1.45c0-.24,0-.48,0-.72,0-.46,0-.92.08-1.38a.13.13,0,0,0,0-.06,8.06,8.06,0,0,1,1.19-.33,8.43,8.43,0,0,1,.87,0h.53l.45,0c.17,0,.34-.06.5-.09l.27-.07.15,0a1,1,0,0,0,.38-.23,2.14,2.14,0,0,0,.13-.19c0-.05,0-.11.08-.16l.06-.2a.76.76,0,0,0,0-.21,2.41,2.41,0,0,0,0-.38c0-.1,0-.21,0-.32s0-.36-.07-.54,0-.53-.06-.8a5.43,5.43,0,0,1,0-.9,4.81,4.81,0,0,1,.13-.66l.14,0c.23,0,.47,0,.7,0l.6,0,.67-.07.54,0c.41,0,.81,0,1.21-.05a2.4,2.4,0,0,0,.28,0,1.11,1.11,0,0,0,.19-.09,1.14,1.14,0,0,0,.16-.15,1.05,1.05,0,0,0,.19-.4,1.82,1.82,0,0,0,.1-.45,3.69,3.69,0,0,0,0-.58c0-.1,0-.2,0-.3s0-.43-.06-.65a3.9,3.9,0,0,0-.14-.59c0-.14-.09-.28-.13-.42s0-.23-.08-.34,0-.32,0-.48l-.06-.55,0-.38.25.08.38.14.28.12.25.11A9.84,9.84,0,0,1,120,11.14Z"/><path class="cls-5" d="M116.89,9.73c.33.27.36,1,.46,1.42s.59,3.51.35,3.53l-4.43.5a.56.56,0,0,0-.38.15.64.64,0,0,0-.09.41c0,.91.1,1.82.14,2.73,0,.3.16.89,0,1.15s-.58.23-.85.22A9.45,9.45,0,0,0,110,20c-.56.12-1.5.21-1.64.88a10.05,10.05,0,0,0-.16,1.33,13.33,13.33,0,0,0,.06,2.68,1.2,1.2,0,0,0,.16.46,3.79,3.79,0,0,1-1.44.45c-.23,0-.47,0-.71.06s-.46.15-.69.2a8.12,8.12,0,0,1-.85.07,2.76,2.76,0,0,0-1.46.58,35.35,35.35,0,0,0-.09,3.85c0,.42.28,1.2-.31,1.11a5.9,5.9,0,0,1-1-.46,18.86,18.86,0,0,0-2.61-1,3.16,3.16,0,0,0-.46,1.91c0,1.08-.37,2.15-.39,3.21a2.28,2.28,0,0,1-.7-.89l-.08-.15a23.75,23.75,0,0,1-1.43-3.12c-.74-2.1-.59-4.36-.7-6.56a2.18,2.18,0,0,1,0-.51c.08-.38.32-.54.59-.78a10.71,10.71,0,0,0,.81-.84c.27-.28.53-.57.82-.83s.29-.29.44-.42l.45-.38.4-.31.46-.34c.38-.29.74-.59,1.11-.89L101,19c.16-.13.3-.27.45-.41s.53-.52.79-.79c.59-.6,1.17-1.22,1.75-1.83s1.06-1.11,1.58-1.67c.14-.15.28-.3.41-.46s.29-.33.42-.5a6.84,6.84,0,0,0,.69-1c.1-.17.21-.33.32-.49a4.07,4.07,0,0,0,.31-.53,5.31,5.31,0,0,0,.56-1.18,1.5,1.5,0,0,1,.64-1,3.1,3.1,0,0,1,1.26-.43A7.14,7.14,0,0,1,112,8.5c.39,0,.77.12,1.15.19.72.15,1.44.3,2.14.5A4.94,4.94,0,0,1,116.89,9.73Z"/><path class="cls-4" d="M104.83,8.42a6.28,6.28,0,0,1,3.36.1c-.45,1.94-2,3.65-3.23,5.14a59,59,0,0,1-4.42,4.66q-.54.54-1.11,1.05c-.77.67-1.59,1.28-2.36,1.94a13,13,0,0,0-1.09,1c-.17.17-.56.83-.87.68a.41.41,0,0,1-.15-.23,3,3,0,0,1-.19-.82,5.64,5.64,0,0,1,.2-1.59,16,16,0,0,1,.45-1.78,15.38,15.38,0,0,1,1.37-3,6.53,6.53,0,0,1,.81-1.23c.4-.45.84-.86,1.25-1.3l1.62-1.71.34-.36.4-.39.69-.62a7,7,0,0,1,.83-.6,9.06,9.06,0,0,1,1.37-.74A3.9,3.9,0,0,1,104.83,8.42Z"/><path class="cls-4" d="M100.36,10.41l-.23.25-.48.5-1.18,1.25-.23.24a3.11,3.11,0,0,1-.28-.23,2.23,2.23,0,0,1-.21-.22l-.24-.34-.24-.38-.19-.35c-.06-.12-.12-.24-.17-.36s0-.12-.07-.17a2.3,2.3,0,0,1-.12-.43,1.48,1.48,0,0,1,0-.21s0,0,0-.05a1.48,1.48,0,0,1,.16-.27l.29-.36a3.92,3.92,0,0,1,.45-.46l.23-.15.07,0H98a1.05,1.05,0,0,1,.24.06,2.56,2.56,0,0,1,.4.22,20.76,20.76,0,0,1,1.56,1.4A.37.37,0,0,0,100.36,10.41Z"/><path class="cls-4" d="M96.79,34.57a31.93,31.93,0,0,1,2.53,2.67c.9,1,1.82,2,2.77,2.9a4,4,0,0,0,.73.63l.14.08a4.55,4.55,0,0,1-.93,1,5.12,5.12,0,0,1-1.7,1,5.74,5.74,0,0,1-3.94-.07,7.66,7.66,0,0,1-1.65-1.16,4.13,4.13,0,0,1-1.34-1.8,14.47,14.47,0,0,1-.65-2.75,7,7,0,0,0-1-2.66,2.82,2.82,0,0,0-3.59-1.08,4.92,4.92,0,0,0-2.34,1.75,3,3,0,0,0-.37.79c-.08.24-.16.48-.23.73a2,2,0,0,0-.07.43L85,36.78a4.7,4.7,0,0,1-.85-1.51s0-.06,0-.07-.06,0-.08,0c-.37.53-.4,1.18-.71,1.72-.36-.13-.39-.89-.38-1.22a3.18,3.18,0,0,1,.16-.86c.72-2.37,3.33-4.7,5.93-4.06a5.38,5.38,0,0,1,2.66,1.73,8.56,8.56,0,0,0,2.87,2,4.06,4.06,0,0,0,1.31.36A1.36,1.36,0,0,0,96.79,34.57Z"/></g><path class="cls-2" d="M152.4,25c1.7.77,3.15,2,4.83,2.79a21.61,21.61,0,0,0,5.62,1.5,5.07,5.07,0,0,0,2.64.19,6,6,0,0,0,2-1.54,23.57,23.57,0,0,1,3.47-3,.58.58,0,0,1,.36-.15c.43,0,1.31,1.55,1.57,1.89l1.65,2.1c.92,1.17,1.84,2.33,2.78,3.49a30.36,30.36,0,0,0,3.34,3.37.47.47,0,0,1,.19.28.49.49,0,0,1-.14.32L179.3,38a.46.46,0,0,0-.14.31.48.48,0,0,0,.14.25c.74.84,1.17,1.77,2,2.58a23.32,23.32,0,0,0,2.83,2.42,2.2,2.2,0,0,0,1.11.5,2.25,2.25,0,0,0,1.24-.5c.91-.6,4.51-2.58,3.29-4.06a2.28,2.28,0,0,0-.39-.37l-.41-.29a13.88,13.88,0,0,1-2.47-2.25,13.12,13.12,0,0,0-2.39-2.14.33.33,0,0,0-.21-.09.37.37,0,0,0-.23.1,8.24,8.24,0,0,1-1.46.79.31.31,0,0,1-.19,0,.42.42,0,0,1-.16-.11,44.46,44.46,0,0,1-3.26-3.47c-.45-.53-.88-1.08-1.31-1.62l-2.73-3.44c-.62-.78-1.22-1.57-1.81-2.37a1.16,1.16,0,0,1-.24-.45,1.15,1.15,0,0,1,.4-.92q1.74-2,3.6-3.92a2.59,2.59,0,0,0,.7-2.65,4.94,4.94,0,0,0-.45-1,10.23,10.23,0,0,0-.62-1l-.67-.93c-.42-.57-.87-1.13-1.31-1.69L172.75,10c-.43-.54-.86-1.09-1.34-1.59s-1-1.05-1.56-1.57l-.62-.59-.68-.67c-.27-.28-.55-.56-.85-.82-.53-.47-1.06-1-1.62-1.39-.3-.25-.62-.48-.94-.71-2.32-1.7-5-2.18-7.72-2.89a2.9,2.9,0,0,0-1-.14,2.74,2.74,0,0,0-1.17.52,22.92,22.92,0,0,0-7,8.49,19,19,0,0,0-2,4.92l-1.29,6a10.31,10.31,0,0,0-.41,2.8c.08.93,1,1.18,1.86,1.29A21.31,21.31,0,0,1,152.4,25Zm-2.19-6.26a7.12,7.12,0,0,0,1.38,1.19l.78.56c.34.23.67.47,1,.71s.62.45.93.69c.58.44,1.15.9,1.72,1.35s1.13.87,1.69,1.33c.26.2.52.41.77.63l.93.81c.51.45,1,.93,1.53,1.37l.39.33-.48-.05a9.87,9.87,0,0,1-1.06-.2,12.21,12.21,0,0,1-1.58-.53c-.27-.12-.53-.25-.79-.39s-.66-.34-1-.52c-.7-.4-1.4-.79-2.11-1.16l-.95-.54c-.38-.22-.76-.42-1.15-.62a16.36,16.36,0,0,0-1.67-.85,6.15,6.15,0,0,0-1.63-.44c-.34,0-.69-.06-1-.08l-1.17-.07c-.3,0-.6,0-.89-.06l1.36-1.08Zm-3.82.87c.09-.29.17-.57.24-.87a9.49,9.49,0,0,0,.23-2l0-.74a7,7,0,0,1,.19-1.45c.12-.44.28-.86.43-1.28.06-.15.13-.29.19-.42l.17-.38c.27-.62.54-1.25.83-1.87s.55-1.15.82-1.73l.42-.89c.12-.26.25-.51.38-.76.36-.63.7-1.27,1.11-1.86a8.73,8.73,0,0,1,.68-.92c.22-.25.44-.5.67-.74A16.38,16.38,0,0,1,154,2.6l.65-.51.18-.14a6.48,6.48,0,0,1,.67-.5,1.79,1.79,0,0,1,1.14-.33,7.89,7.89,0,0,1,1.68.3,5.54,5.54,0,0,0,.55.14l-.16.1-.48.34c-.31.21-.62.44-.92.67a5.53,5.53,0,0,0-1,.91,7.67,7.67,0,0,0-.53.74c-.11.15-.22.3-.32.46a5.24,5.24,0,0,0-.3.51c-.21.35-.4.71-.59,1.07l-.53,1-.51,1c-.28.57-.52,1.16-.78,1.73-.12.29-.27.57-.39.86s-.26.54-.39.81a.65.65,0,0,0-.42.14.68.68,0,0,0-.15.89c-.11.19-.21.38-.31.57-.28.53-.55,1.06-.83,1.58l-.49.86-.25.47a1.62,1.62,0,0,0-.14.78,2.19,2.19,0,0,0,.1.51l0,0a.62.62,0,0,0-.14-.32.68.68,0,0,0-1.06.84.69.69,0,0,0,.28.2l-1.8,1.42-.63.5A5.89,5.89,0,0,0,146.39,19.6Zm4.5-2.5A1.79,1.79,0,0,1,151.2,16l4.69-9a20.23,20.23,0,0,1,1.27-2.22,10.47,10.47,0,0,1,3.42-3.1c.27-.15,2,1,2.26,1.19a25.24,25.24,0,0,1,2.21,1.5,49.1,49.1,0,0,1,3.83,3.39c.49.49,1,1,1.47,1.48s.91,1,1.34,1.59q1.35,1.71,2.69,3.45c.36.47.69,1,1,1.45s.78,1.25.26,1.85L172,21.71c-.24.27-.47.54-.73.79-.69.65-1.37,1.22-2,1.92-.42.43-.83.86-1.25,1.28a15.71,15.71,0,0,1-3.07,2.63,1,1,0,0,1-.34.14.79.79,0,0,1-.46-.15,7.22,7.22,0,0,1-1-.77c-1-.84-2-1.49-2.88-2.4C159.14,24,157.85,23,156.62,22c-1.69-1.39-3.56-2.53-5.15-4a1.66,1.66,0,0,1-.57-.82S150.89,17.12,150.89,17.1Zm31.54,19.36a3.33,3.33,0,0,1,1.22-.77.64.64,0,0,1,.45,0,.92.92,0,0,1,.31.24c1.09,1.16,1.85,2.64,3.11,3.61a5.51,5.51,0,0,1,.85.63,6.41,6.41,0,0,1-1,1.16,11.61,11.61,0,0,1-1.62,1.17,1.36,1.36,0,0,1-.72.25,1.38,1.38,0,0,1-.71-.31,14.48,14.48,0,0,1-4-4.18Z"/><path class="cls-5" d="M146.72,22.25l1.17.07c.34,0,.69,0,1,.08a6.15,6.15,0,0,1,1.63.44,16.36,16.36,0,0,1,1.67.85c.39.2.77.4,1.15.62l.95.54c.71.37,1.41.76,2.11,1.16.33.18.65.36,1,.52s.52.27.79.39a12.21,12.21,0,0,0,1.58.53,9.87,9.87,0,0,0,1.06.2l.48.05-.39-.33c-.52-.44-1-.92-1.53-1.37l-.93-.81c-.25-.22-.51-.43-.77-.63-.56-.46-1.13-.89-1.69-1.33s-1.14-.91-1.72-1.35c-.31-.24-.61-.47-.93-.69s-.66-.48-1-.71l-.78-.56a7.12,7.12,0,0,1-1.38-1.19l-3,2.38-1.36,1.08C146.12,22.22,146.42,22.24,146.72,22.25Zm3.27-.86a.67.67,0,1,1-.12.95A.69.69,0,0,1,150,21.39Z"/><path class="cls-5" d="M148.61,18.27a.69.69,0,0,1-.28-.2.68.68,0,0,1,1.06-.84.62.62,0,0,1,.14.32l0,0a2.19,2.19,0,0,1-.1-.51,1.62,1.62,0,0,1,.14-.78l.25-.47.49-.86c.28-.52.55-1.05.83-1.58.1-.19.2-.38.31-.57a.68.68,0,0,1,.15-.89.65.65,0,0,1,.42-.14c.13-.27.27-.54.39-.81s.27-.57.39-.86c.26-.57.5-1.16.78-1.73l.51-1,.53-1c.19-.36.38-.72.59-1.07a5.24,5.24,0,0,1,.3-.51c.1-.16.21-.31.32-.46a7.67,7.67,0,0,1,.53-.74,5.53,5.53,0,0,1,1-.91c.3-.23.61-.46.92-.67l.48-.34.16-.1a5.54,5.54,0,0,1-.55-.14,7.89,7.89,0,0,0-1.68-.3,1.79,1.79,0,0,0-1.14.33,6.48,6.48,0,0,0-.67.5l-.18.14L154,2.6a16.38,16.38,0,0,0-1.25,1.1c-.23.24-.45.49-.67.74a8.73,8.73,0,0,0-.68.92c-.41.59-.75,1.23-1.11,1.86-.13.25-.26.5-.38.76l-.42.89c-.27.58-.56,1.15-.82,1.73s-.56,1.25-.83,1.87l-.17.38c-.06.13-.13.27-.19.42-.15.42-.31.84-.43,1.28a7,7,0,0,0-.19,1.45l0,.74a9.49,9.49,0,0,1-.23,2c-.07.3-.15.58-.24.87a5.89,5.89,0,0,1-.21.59l.63-.5Zm.53-4.9a.68.68,0,0,1,.84,1.06.69.69,0,0,1-.95-.11A.68.68,0,0,1,149.14,13.37Zm2.45-5.6a.68.68,0,0,1,.95.11.69.69,0,0,1-.11,1,.7.7,0,0,1-1-.12A.69.69,0,0,1,151.59,7.77Zm4.3-6.14a.68.68,0,1,1-.11,1A.68.68,0,0,1,155.89,1.63Z"/><path class="cls-5" d="M150.82,22.45a.68.68,0,0,1-.95-.11.69.69,0,0,1,.12-.95.67.67,0,1,1,.83,1.06Z"/><path class="cls-5" d="M156.62,22c1.23,1,2.52,2,3.66,3.16.9.91,1.9,1.56,2.88,2.4a7.22,7.22,0,0,0,1,.77.79.79,0,0,0,.46.15,1,1,0,0,0,.34-.14A15.71,15.71,0,0,0,168,25.7c.42-.42.83-.85,1.25-1.28.66-.7,1.34-1.27,2-1.92.26-.25.49-.52.73-.79l3.63-4.14c.52-.6.12-1.28-.26-1.85s-.65-1-1-1.45q-1.33-1.74-2.69-3.45c-.43-.54-.86-1.09-1.34-1.59s-1-1-1.47-1.48a49.1,49.1,0,0,0-3.83-3.39,25.24,25.24,0,0,0-2.21-1.5c-.29-.17-2-1.34-2.26-1.19a10.47,10.47,0,0,0-3.42,3.1A20.23,20.23,0,0,0,155.89,7l-4.69,9a1.79,1.79,0,0,0-.31,1.12s0,0,0,0a1.66,1.66,0,0,0,.57.82C153.06,19.46,154.93,20.6,156.62,22Zm-2.55-7a.67.67,0,0,1,.94.11.68.68,0,0,1-1.06.84A.69.69,0,0,1,154.07,15Zm3.24.63a.68.68,0,0,1,.84,1.07.68.68,0,0,1-.84-1.07ZM154,10.87a.7.7,0,0,1,1,.11.69.69,0,0,1-.12.95.68.68,0,0,1-1-.11A.7.7,0,0,1,154,10.87Zm10.41,8.23a.58.58,0,0,1-.67.34h0c-.41-.17-.53-1.5,0-1.58S164.62,18.71,164.44,19.1ZM157.91,7.2a.89.89,0,0,1,.68.41,1.32,1.32,0,0,1-.3,1.7.66.66,0,0,1-.63,0,1.22,1.22,0,0,1,0-2A.8.8,0,0,1,157.91,7.2ZM159.76,10a.68.68,0,1,1-.11,1A.68.68,0,0,1,159.76,10Zm1.9,1.25a.68.68,0,1,1-.11,1A.68.68,0,0,1,161.66,11.26Zm2.58,2.11a.66.66,0,0,1,.92.07.65.65,0,0,1-.14.91.66.66,0,0,1-.92-.07A.67.67,0,0,1,164.24,13.37Zm-6-7.63a.68.68,0,1,1-.11,1A.68.68,0,0,1,158.22,5.74Zm1.79,0a.69.69,0,0,1,1,.12.68.68,0,0,1-.11,1,.7.7,0,0,1-.95-.11A.69.69,0,0,1,160,5.69ZM161.68,8c0-.35.37-.57.68-.7a.56.56,0,0,1,.3-.08.62.62,0,0,1,.34.11,1.25,1.25,0,0,1,.58.64c.28.85-.56,1.08-1.21.86a1,1,0,0,1-.55-.39A.72.72,0,0,1,161.68,8Zm3.36.59a.68.68,0,1,1-.11.95A.68.68,0,0,1,165,8.59Z"/><path class="cls-5" d="M150,14.43a.69.69,0,0,1-.95-.11.68.68,0,1,1,.95.11Z"/><path class="cls-5" d="M154.9,16a.68.68,0,0,1-1-.11.69.69,0,0,1,.12-.95.67.67,0,0,1,.94.11A.68.68,0,0,1,154.9,16Z"/><path class="cls-5" d="M158.15,16.67a.68.68,0,0,1-.84-1.07.68.68,0,0,1,.84,1.07Z"/><path class="cls-5" d="M154.87,11.93a.68.68,0,0,1-1-.11A.68.68,0,0,1,155,11,.69.69,0,0,1,154.87,11.93Z"/><path class="cls-5" d="M152.43,8.84a.7.7,0,0,1-1-.12.69.69,0,0,1,.12-1,.68.68,0,0,1,.95.11A.69.69,0,0,1,152.43,8.84Z"/><path class="cls-5" d="M163.75,19.44c-.41-.17-.53-1.5,0-1.58s.84.85.66,1.24a.58.58,0,0,1-.67.34Z"/><path class="cls-5" d="M184.31,42.43a14.48,14.48,0,0,1-4-4.18l2.08-1.79a3.33,3.33,0,0,1,1.22-.77.64.64,0,0,1,.45,0,.92.92,0,0,1,.31.24c1.09,1.16,1.85,2.64,3.11,3.61a5.51,5.51,0,0,1,.85.63,6.41,6.41,0,0,1-1,1.16,11.61,11.61,0,0,1-1.62,1.17,1.36,1.36,0,0,1-.72.25A1.38,1.38,0,0,1,184.31,42.43Z"/><path class="cls-5" d="M157.66,9.32a1.22,1.22,0,0,1,0-2,.8.8,0,0,1,.3-.09.89.89,0,0,1,.68.41,1.32,1.32,0,0,1-.3,1.7A.66.66,0,0,1,157.66,9.32Z"/><path class="cls-5" d="M160.6,11.07a.68.68,0,1,1,.11-1A.68.68,0,0,1,160.6,11.07Z"/><path class="cls-5" d="M162.5,12.32a.68.68,0,1,1,.11-1A.68.68,0,0,1,162.5,12.32Z"/><path class="cls-5" d="M165,14.35a.66.66,0,0,1-.92-.07.68.68,0,0,1,1.06-.84A.65.65,0,0,1,165,14.35Z"/><path class="cls-5" d="M159.06,6.8a.68.68,0,1,1,.11-1A.68.68,0,0,1,159.06,6.8Z"/><path class="cls-5" d="M156.73,2.69a.68.68,0,1,1,.11-.95A.68.68,0,0,1,156.73,2.69Z"/><path class="cls-5" d="M160.85,6.76a.7.7,0,0,1-.95-.11A.68.68,0,1,1,161,5.81.68.68,0,0,1,160.85,6.76Z"/><path class="cls-5" d="M162.37,8.83a1,1,0,0,1-.55-.39.72.72,0,0,1-.14-.44c0-.35.37-.57.68-.7a.56.56,0,0,1,.3-.08.62.62,0,0,1,.34.11,1.25,1.25,0,0,1,.58.64C163.86,8.82,163,9.05,162.37,8.83Z"/><path class="cls-5" d="M165.88,9.65a.68.68,0,1,1,.11-1A.68.68,0,0,1,165.88,9.65Z"/><path class="cls-2" d="M-34.87,25c1.7.77,3.15,2,4.84,2.79a21.43,21.43,0,0,0,5.61,1.5,5.07,5.07,0,0,0,2.64.19,6.06,6.06,0,0,0,2-1.54,22.59,22.59,0,0,1,3.47-3,.53.53,0,0,1,.36-.15c.43,0,1.3,1.55,1.56,1.89l1.65,2.1c.92,1.17,1.84,2.33,2.78,3.49a31.26,31.26,0,0,0,3.34,3.37.47.47,0,0,1,.19.28.49.49,0,0,1-.14.32L-8,38a.51.51,0,0,0-.14.31.48.48,0,0,0,.14.25c.74.84,1.18,1.77,2,2.58a23.23,23.23,0,0,0,2.82,2.42A2.23,2.23,0,0,0-2,44a2.22,2.22,0,0,0,1.23-.5c.91-.6,4.51-2.58,3.29-4.06a2,2,0,0,0-.39-.37l-.4-.29A13.54,13.54,0,0,1-.79,36.56a13.82,13.82,0,0,0-2.39-2.14.39.39,0,0,0-.21-.09.37.37,0,0,0-.24.1,7.82,7.82,0,0,1-1.45.79.34.34,0,0,1-.19,0,.39.39,0,0,1-.17-.11A44.46,44.46,0,0,1-8.7,31.68c-.45-.53-.88-1.08-1.31-1.62l-2.73-3.44c-.61-.78-1.22-1.57-1.81-2.37a1.16,1.16,0,0,1-.24-.45,1.15,1.15,0,0,1,.4-.92q1.74-2,3.6-3.92a2.59,2.59,0,0,0,.7-2.65,4.42,4.42,0,0,0-.45-1c-.19-.34-.39-.67-.61-1l-.68-.93c-.42-.57-.87-1.13-1.3-1.69L-14.52,10c-.43-.54-.85-1.09-1.33-1.59s-1-1.05-1.57-1.57L-18,6.23c-.23-.22-.46-.44-.68-.67s-.56-.56-.85-.82c-.54-.47-1.07-1-1.62-1.39-.31-.25-.62-.48-.94-.71-2.33-1.7-5-2.18-7.73-2.89a2.9,2.9,0,0,0-1-.14A2.74,2.74,0,0,0-32,.13a23,23,0,0,0-7,8.49,19,19,0,0,0-2,4.92l-1.29,6a10.71,10.71,0,0,0-.41,2.8c.08.93,1,1.18,1.86,1.29A21.31,21.31,0,0,1-34.87,25ZM-37,18.73a6.78,6.78,0,0,0,1.37,1.19l.79.56,1,.71q.48.33.93.69c.59.44,1.15.9,1.73,1.35s1.12.87,1.68,1.33c.26.2.52.41.77.63l.93.81c.51.45,1,.93,1.53,1.37l.39.33-.47-.05a9,9,0,0,1-1.06-.2,12.89,12.89,0,0,1-1.59-.53c-.27-.12-.53-.25-.79-.39s-.66-.34-1-.52c-.7-.4-1.4-.79-2.11-1.16l-.94-.54c-.38-.22-.77-.42-1.15-.62a17.63,17.63,0,0,0-1.68-.85,6.18,6.18,0,0,0-1.62-.44c-.35,0-.69-.06-1-.08l-1.17-.07c-.3,0-.6,0-.89-.06l1.36-1.08Zm-3.83.87a8.6,8.6,0,0,0,.24-.87,10.21,10.21,0,0,0,.24-2c0-.24,0-.49,0-.74a7,7,0,0,1,.19-1.45c.13-.44.28-.86.44-1.28a4.08,4.08,0,0,1,.18-.42l.17-.38c.28-.62.54-1.25.83-1.87s.55-1.15.83-1.73c.13-.3.27-.6.41-.89s.25-.51.39-.76c.35-.63.69-1.27,1.1-1.86.22-.32.44-.63.68-.92s.44-.5.67-.74a16.38,16.38,0,0,1,1.25-1.1l.65-.51.18-.14a7.76,7.76,0,0,1,.67-.5,1.81,1.81,0,0,1,1.14-.33,8.1,8.1,0,0,1,1.69.3,5.36,5.36,0,0,0,.54.14l-.15.1L-29,2c-.31.21-.62.44-.92.67a5.53,5.53,0,0,0-1,.91c-.19.23-.36.49-.53.74l-.32.46c-.11.16-.2.34-.3.51-.21.35-.4.71-.59,1.07l-.52,1q-.27.5-.51,1c-.29.57-.52,1.16-.78,1.73-.13.29-.27.57-.4.86s-.26.54-.39.81a.65.65,0,0,0-.42.14.68.68,0,0,0-.15.89l-.31.57c-.28.53-.55,1.06-.83,1.58l-.49.86-.25.47a1.62,1.62,0,0,0-.14.78,2.19,2.19,0,0,0,.1.51l0,0a.7.7,0,0,0-.13-.32.68.68,0,0,0-1-.11.69.69,0,0,0-.12.95.76.76,0,0,0,.28.2l-1.8,1.42-.63.5A4.14,4.14,0,0,0-40.88,19.6Zm4.5-2.5A1.93,1.93,0,0,1-36.07,16l4.69-9A18.79,18.79,0,0,1-30.1,4.77a10.27,10.27,0,0,1,3.42-3.1c.26-.15,2,1,2.25,1.19a25.24,25.24,0,0,1,2.21,1.5,47.33,47.33,0,0,1,3.83,3.39c.5.49,1,1,1.47,1.48s.91,1,1.34,1.59c.9,1.14,1.81,2.29,2.69,3.45.36.47.69,1,1,1.45s.78,1.25.25,1.85l-3.63,4.14c-.23.27-.47.54-.73.79-.69.65-1.36,1.22-2,1.92-.42.43-.83.86-1.25,1.28a15.71,15.71,0,0,1-3.07,2.63,1,1,0,0,1-.33.14.8.8,0,0,1-.47-.15,7.89,7.89,0,0,1-1-.77c-1-.84-2-1.49-2.88-2.4C-28.12,24-29.42,23-30.65,22c-1.69-1.39-3.56-2.53-5.15-4a1.66,1.66,0,0,1-.57-.82A.08.08,0,0,0-36.38,17.1ZM-4.84,36.46a3.41,3.41,0,0,1,1.22-.77.64.64,0,0,1,.45,0,1.08,1.08,0,0,1,.32.24C-1.77,37.08-1,38.56.26,39.53a5.42,5.42,0,0,1,.84.63,6,6,0,0,1-1,1.16,11,11,0,0,1-1.61,1.17,1.42,1.42,0,0,1-.73.25A1.38,1.38,0,0,1-3,42.43a14.48,14.48,0,0,1-4-4.18Z"/><path class="cls-5" d="M-3,42.43a14.48,14.48,0,0,1-4-4.18l2.08-1.79a3.41,3.41,0,0,1,1.22-.77.64.64,0,0,1,.45,0,1.08,1.08,0,0,1,.32.24C-1.77,37.08-1,38.56.26,39.53a5.42,5.42,0,0,1,.84.63,6,6,0,0,1-1,1.16,11,11,0,0,1-1.61,1.17,1.42,1.42,0,0,1-.73.25A1.38,1.38,0,0,1-3,42.43Z"/></pattern></defs><rect class="cls-12" width="256.26" height="800"/></svg>