<svg id="Layer_1" data-name="Layer 1" xmlns="http://www.w3.org/2000/svg" viewBox="0 0 331.31 125.13"><defs><style>.cls-1{fill:#7c5039;}</style></defs><path class="cls-1" d="M33.54,80.87a5.67,5.67,0,0,0,1.33.12c.39,0,.85,0,1.39-.06q4.07-.23,6.9-.23c3.4,0,5.46.23,6.2.69a6.79,6.79,0,0,1,3.47,4.81,13,13,0,0,1-.11,3.88A10.61,10.61,0,0,1,47,97.67q-3,1.45-9.61,1.45a38.19,38.19,0,0,1-8.06-1q-10.24-2.19-14.19-7.29-4.69-6-7-22.54-1-7-1.91-18.19-.41-5.85-.41-10.43,0-9.33,1.68-13.21a11.6,11.6,0,0,1,5.74-5.67,18.57,18.57,0,0,1,8.34-1.86h.29q11,.12,14.48,10.43a38.24,38.24,0,0,1,1.62,12.05,88.07,88.07,0,0,1-.69,10.43Q36.72,56,33.37,71.6a44.77,44.77,0,0,0-.93,7v.23c0,1.39.29,2.09.87,2.09A.49.49,0,0,0,33.54,80.87ZM11.12,31.05a11.48,11.48,0,0,1,2-3.65,11.11,11.11,0,0,1,3.3-2.26,16.56,16.56,0,0,0,3.07-1.74,2.78,2.78,0,0,0-1.45-.34h-.46A9.13,9.13,0,0,0,12,25.55c-1.47,1.43-2.2,4.32-2.2,8.69A14.73,14.73,0,0,0,11.12,31.05Z"/><path class="cls-1" d="M121.25,38a50.78,50.78,0,0,1,3.88,18.54v1.39a52.51,52.51,0,0,1-2.95,17.67A36.73,36.73,0,0,1,112.33,91,29.35,29.35,0,0,1,93,98.54H91.88q-11.13,0-17.9-7.36A54.05,54.05,0,0,1,60,61.52a51.52,51.52,0,0,1-.52-7.24,39.32,39.32,0,0,1,7.87-24.16q6.5-8.69,20.86-10.6a46.79,46.79,0,0,1,6-.4q10,0,16.63,4.92A33,33,0,0,1,121.25,38ZM65.58,45.24a53.29,53.29,0,0,1,1.91-5.79q3.36-7.94,12.4-12.51a34,34,0,0,1,5.27-1.86,20.17,20.17,0,0,0,4.34-1.56q-11.58,0-18.59,7.18t-7,18.83A15.37,15.37,0,0,0,65.58,45.24ZM83,57.47a14.05,14.05,0,0,0-2.26,7.24q0,4.7,4.17,8.8,3,3,6,3a6.54,6.54,0,0,0,1.22-.12q3.7-.63,5.85-5.15a18.39,18.39,0,0,0,2-7.94,14.5,14.5,0,0,0-.81-4.81q-2.43-7-7.59-7.07Q86.55,51.38,83,57.47Zm17.84,18.3a17.08,17.08,0,0,0,3-10c-.07.08-.77,1.6-2.08,4.58a17.75,17.75,0,0,1-5.79,7.18c-2.4,1.7-3.63,2.7-3.71,3A10,10,0,0,0,100.8,75.77Z"/><path class="cls-1" d="M168.52,53.82a23.3,23.3,0,0,0-2.43,10.77c0,1,.06,2.13.17,3.25q.93,9.61,8.05,11.06a26.86,26.86,0,0,0,5,.7c1,0,1.56-.21,1.56-.64v-.12a9.08,9.08,0,0,0-1.39-2.08,28,28,0,0,1-2.26-3.13A7,7,0,0,1,176,70a4.31,4.31,0,0,1,1.86-3.48q2.61-2.09,9-2.08h1.34q7.47.17,9.79,2.66a6.55,6.55,0,0,1,1.91,4.52,4.81,4.81,0,0,1-.52,2.2,69.36,69.36,0,0,1-6,4.64q-.87.69-1.33,4.75-.53,4.52-1.68,6.25-3.42,5.16-10.54,7.71a30.42,30.42,0,0,1-10.61,1.91q-1.22,0-2.43-.12-18.42-1.38-27.4-15.93a42.82,42.82,0,0,1-6.2-23,62.39,62.39,0,0,1,.7-9.15,38.69,38.69,0,0,1,10.95-21.84,36.35,36.35,0,0,1,21.66-11.24,37.55,37.55,0,0,1,5-.34,36,36,0,0,1,16.22,3.88q6.15,3,7.3,8.11a13,13,0,0,1,.35,3.3,48.35,48.35,0,0,1-.75,7.53,19.41,19.41,0,0,1-1.16,4.52,1.89,1.89,0,0,1-1.74,1c-.12,0-1.2-.19-3.24-.58a24.69,24.69,0,0,0-4.47-.4h-1Q173.16,45.41,168.52,53.82Zm-30.93-.18s.65-2,1.85-6a37.82,37.82,0,0,1,2.32-5.39A58.7,58.7,0,0,1,148,33.08q4.23-5.38,14-9.15a31.83,31.83,0,0,1,3.18-1,9.86,9.86,0,0,0,2.84-1q-12.28,0-21.43,9.67a31.36,31.36,0,0,0-9,22Zm40.49,29.09a12.2,12.2,0,0,0,2.2.23,5.12,5.12,0,0,0,3.19-.93,3.53,3.53,0,0,0,1.45-3q0-1.74-.87-1.74c-.62,0-1.09,1-1.39,3a7,7,0,0,1-2.15,1.22A13.43,13.43,0,0,0,178.08,82.73Zm2.55-11.82a.62.62,0,0,0,.29.06,5.61,5.61,0,0,0,2.55-1.39,2.32,2.32,0,0,0,.92-1.16,3,3,0,0,0-1.1-.18,6.16,6.16,0,0,0-2.14.47,1.76,1.76,0,0,0-1.1,1A.93.93,0,0,0,180,70,1,1,0,0,0,180.63,70.91Z"/><path class="cls-1" d="M215.39,46.29a30.94,30.94,0,0,1-3.13-.52A5.25,5.25,0,0,1,208,42.06a21.73,21.73,0,0,1-1.1-5.91v-.64a22.12,22.12,0,0,1,1.45-7.76q2.2-6,15.41-7.18,3-.24,10.2-.24,8.1,0,13,2.44t6,10.25a24.71,24.71,0,0,1,.17,3.13q0,3.12-3,7.07a8.74,8.74,0,0,1-4.4,3.24,25.84,25.84,0,0,1-4.17.58,5.34,5.34,0,0,0-3.36,1.22c-1,1-1.7,2.91-2.09,5.85a84.12,84.12,0,0,0-.29,9q0,.93.06,1.62c.15,7.72.68,11.93,1.56,12.63q.65.47,5.1.75c1.66.23,2.86.41,3.59.52,2.13.85,3.19,2.75,3.19,5.68v.17q.57,11.19-2,13.27-2.72,1.68-21.14,1.91c-.85,0-1.64.06-2.38.06q-8.28,0-11.64-1.39-2.09-1.28-2.67-4.87c-.11-5.4-.17-8.44-.17-9.09a8.2,8.2,0,0,1,.75-3.59q.87-1.8,6.49-1.86,4.17-.11,5.1-1.1,1-2.14,1-10.89a18.73,18.73,0,0,0-.11-3.13q-.53-15.47-3.71-16.8A20.78,20.78,0,0,0,215.39,46.29ZM213,30.53a6.4,6.4,0,0,1,2.55-2.72,21.7,21.7,0,0,1,3.94-1.63A15.59,15.59,0,0,0,222.51,25q-5.85,0-8.69,1.5a5.83,5.83,0,0,0-2.6,3.07,5.4,5.4,0,0,0-.41,1.92c0,.69.19,1.12.58,1.27C211.58,33.27,212.1,32.54,213,30.53ZM212.84,83a2.52,2.52,0,0,0-.06.52c0,.85,1.18,1.27,3.53,1.27h.29a9.4,9.4,0,0,0,3.6-.93,9.76,9.76,0,0,0,4.69-4.46,8.14,8.14,0,0,0,.81-3.59,10.69,10.69,0,0,0-.64-3.53s0,.5-.06,1.39a13.22,13.22,0,0,1-.34,2.6,7.35,7.35,0,0,1-4.7,5.33,11.18,11.18,0,0,1-3.36.29C214.17,81.91,212.92,82.28,212.84,83Z"/><path class="cls-1" d="M282.36,98.54q-1.8,1.15-6,1.16h-.23q-6.56-.12-8.46-1.45a5.76,5.76,0,0,1-2.43-3.88q-.82-5.57-.81-20c0-3.06,0-6.4.05-10q.3-22.47.29-30.06V30.18q0-4.63,1.57-6.78a8.43,8.43,0,0,1,3.76-3.76,12.53,12.53,0,0,1,6.55-.7,10.25,10.25,0,0,1,5.1,2.67A35.5,35.5,0,0,1,287,28.68q7.93,13,13.85,32.32,2,6.56,2.83,6.55h.06q.64-.35,2.32-8.34.87-4.07,1.16-20.05.29-13.72,1.91-16a9.68,9.68,0,0,1,8.4-4.17c.42,0,.85,0,1.27.06q6.61.64,7.25,7.07.57,6.2.58,14,0,9.8-.93,22-2.15,28.2-8.75,34.12A12.66,12.66,0,0,1,309,99.18h-.69a11,11,0,0,1-7.47-2.67,45,45,0,0,1-12.11-15.93c-.54-1.23-1.06-2.57-1.57-4s-.83-2.12-.87-2.2-.15-.34-.23-.34-.07.07-.11.23-.08,1-.12,2.37q-.34,14.2-1,18A5.55,5.55,0,0,1,282.36,98.54ZM271,26a1.83,1.83,0,0,0,.7-.92,4.32,4.32,0,0,0-1.16-.18,2.92,2.92,0,0,0-2.72,1.91,11.2,11.2,0,0,0-1,4.93,22,22,0,0,0,.41,4.11Q268,28.39,271,26Zm33,43.8a4,4,0,0,0,1.92.58c1.7,0,2.85-1.62,3.47-4.87a21.91,21.91,0,0,0,1.16-6.83,16.77,16.77,0,0,0-.17-2.38,21,21,0,0,0-.81,3.19q-.58,2.72-1,4.23C307.36,67.3,305.86,69.32,304,69.75ZM312.19,29c.85-1.7,1.33-2.63,1.45-2.79a7.17,7.17,0,0,1,1.5-1.27,6.73,6.73,0,0,0,1.57-1.27,2.66,2.66,0,0,0-.93-.47,4,4,0,0,0-.87-.11,3.47,3.47,0,0,0-3,2,4.59,4.59,0,0,0-.81,2.44,3.26,3.26,0,0,0,.69,2A1.59,1.59,0,0,0,312.19,29Z"/></svg>